G04 EAGLE Gerber RS-274X export*
G75*
%MOMM*%
%FSLAX34Y34*%
%LPD*%
%INBottom Copper*%
%IPPOS*%
%AMOC8*
5,1,8,0,0,1.08239X$1,22.5*%
G01*
%ADD10C,0.130000*%
%ADD11C,0.152400*%
%ADD12C,2.184400*%
%ADD13C,3.516000*%
%ADD14P,1.732040X8X202.500000*%
%ADD15C,1.600200*%
%ADD16P,1.924489X8X202.500000*%
%ADD17C,1.778000*%
%ADD18C,1.000000*%
%ADD19R,1.524000X1.524000*%
%ADD20P,1.649562X8X22.500000*%
%ADD21C,1.778000*%
%ADD22C,0.906400*%
%ADD23C,0.254000*%
%ADD24C,0.800100*%
%ADD25C,0.406400*%
%ADD26C,0.203200*%

G36*
X604569Y2541D02*
X604569Y2541D01*
X604573Y2541D01*
X604727Y2561D01*
X604880Y2581D01*
X604884Y2582D01*
X604888Y2583D01*
X605034Y2641D01*
X605175Y2698D01*
X605179Y2700D01*
X605183Y2702D01*
X605308Y2794D01*
X605433Y2884D01*
X605436Y2888D01*
X605439Y2891D01*
X605537Y3010D01*
X605636Y3129D01*
X605638Y3134D01*
X605640Y3137D01*
X605705Y3278D01*
X605771Y3417D01*
X605772Y3422D01*
X605774Y3426D01*
X605802Y3577D01*
X605831Y3729D01*
X605831Y3734D01*
X605831Y3738D01*
X605821Y3894D01*
X605811Y4047D01*
X605810Y4051D01*
X605810Y4056D01*
X605768Y4211D01*
X605325Y5542D01*
X605320Y5553D01*
X605317Y5565D01*
X605290Y5618D01*
X605290Y5619D01*
X605289Y5620D01*
X605251Y5696D01*
X605187Y5829D01*
X605179Y5838D01*
X605174Y5849D01*
X605078Y5959D01*
X604983Y6072D01*
X604973Y6079D01*
X604965Y6089D01*
X604844Y6171D01*
X604724Y6257D01*
X604713Y6262D01*
X604702Y6269D01*
X604555Y6333D01*
X599509Y8170D01*
X591267Y15086D01*
X585887Y24404D01*
X584019Y35000D01*
X585887Y45596D01*
X591267Y54914D01*
X599509Y61830D01*
X601793Y62662D01*
X601932Y62733D01*
X602072Y62804D01*
X602074Y62806D01*
X602076Y62807D01*
X602193Y62911D01*
X602311Y63014D01*
X602312Y63016D01*
X602314Y63018D01*
X602399Y63144D01*
X602490Y63277D01*
X602491Y63280D01*
X602492Y63282D01*
X602542Y63423D01*
X602598Y63576D01*
X602598Y63579D01*
X602599Y63581D01*
X602613Y63736D01*
X602628Y63893D01*
X602628Y63895D01*
X602628Y63898D01*
X602603Y64053D01*
X602579Y64207D01*
X602578Y64209D01*
X602577Y64212D01*
X602514Y64357D01*
X602453Y64499D01*
X602451Y64501D01*
X602450Y64504D01*
X602354Y64627D01*
X602258Y64751D01*
X602256Y64753D01*
X602254Y64754D01*
X602250Y64757D01*
X602138Y64857D01*
X601438Y65400D01*
X601429Y65437D01*
X601419Y65454D01*
X601414Y65473D01*
X601342Y65594D01*
X601317Y65640D01*
X601317Y66048D01*
X601302Y66166D01*
X601295Y66285D01*
X601282Y66323D01*
X601277Y66364D01*
X601234Y66474D01*
X601197Y66587D01*
X601175Y66622D01*
X601160Y66659D01*
X601091Y66755D01*
X601027Y66856D01*
X600997Y66884D01*
X600974Y66917D01*
X600882Y66993D01*
X600795Y67074D01*
X600760Y67094D01*
X600729Y67119D01*
X600621Y67170D01*
X600517Y67228D01*
X600477Y67238D01*
X600441Y67255D01*
X600324Y67277D01*
X600209Y67307D01*
X600149Y67311D01*
X600129Y67315D01*
X600108Y67313D01*
X600048Y67317D01*
X576889Y67317D01*
X575317Y68889D01*
X575317Y71111D01*
X576889Y72683D01*
X600048Y72683D01*
X600166Y72698D01*
X600285Y72705D01*
X600323Y72718D01*
X600364Y72723D01*
X600474Y72766D01*
X600587Y72803D01*
X600622Y72825D01*
X600659Y72840D01*
X600755Y72909D01*
X600856Y72973D01*
X600884Y73003D01*
X600917Y73026D01*
X600993Y73118D01*
X601074Y73205D01*
X601094Y73240D01*
X601119Y73271D01*
X601170Y73379D01*
X601228Y73483D01*
X601238Y73523D01*
X601255Y73559D01*
X601277Y73676D01*
X601307Y73791D01*
X601311Y73851D01*
X601315Y73871D01*
X601313Y73892D01*
X601317Y73952D01*
X601317Y74353D01*
X601341Y74383D01*
X601348Y74401D01*
X601360Y74417D01*
X601411Y74547D01*
X601432Y74595D01*
X602159Y75159D01*
X602161Y75161D01*
X602231Y75223D01*
X602243Y75232D01*
X602249Y75239D01*
X602278Y75265D01*
X602924Y75910D01*
X602962Y75915D01*
X602980Y75922D01*
X602999Y75925D01*
X603128Y75981D01*
X603176Y76000D01*
X604089Y75885D01*
X604092Y75885D01*
X604248Y75875D01*
X605161Y75875D01*
X605191Y75852D01*
X605209Y75844D01*
X605225Y75832D01*
X605354Y75781D01*
X605483Y75725D01*
X605502Y75722D01*
X605520Y75715D01*
X605679Y75685D01*
X625889Y73140D01*
X625929Y73140D01*
X625968Y73132D01*
X626087Y73140D01*
X626207Y73140D01*
X626246Y73150D01*
X626285Y73152D01*
X626399Y73189D01*
X626515Y73219D01*
X626550Y73238D01*
X626587Y73250D01*
X626689Y73314D01*
X626794Y73372D01*
X626823Y73399D01*
X626856Y73420D01*
X626938Y73508D01*
X627026Y73590D01*
X627047Y73623D01*
X627074Y73652D01*
X627132Y73757D01*
X627196Y73858D01*
X627209Y73896D01*
X627228Y73930D01*
X627258Y74047D01*
X627295Y74161D01*
X627297Y74200D01*
X627307Y74238D01*
X627317Y74399D01*
X627317Y90611D01*
X628889Y92183D01*
X631111Y92183D01*
X632683Y90611D01*
X632683Y60583D01*
X632702Y60431D01*
X632720Y60277D01*
X632722Y60272D01*
X632723Y60267D01*
X632779Y60124D01*
X632835Y59981D01*
X632838Y59976D01*
X632840Y59972D01*
X632931Y59846D01*
X633020Y59722D01*
X633024Y59717D01*
X633026Y59714D01*
X633033Y59709D01*
X633136Y59611D01*
X638733Y54914D01*
X644113Y45596D01*
X644798Y41710D01*
X644812Y41663D01*
X644819Y41614D01*
X644859Y41512D01*
X644892Y41406D01*
X644918Y41364D01*
X644936Y41319D01*
X645001Y41229D01*
X645059Y41135D01*
X645094Y41101D01*
X645122Y41061D01*
X645208Y40991D01*
X645287Y40914D01*
X645330Y40890D01*
X645367Y40859D01*
X645467Y40812D01*
X645564Y40757D01*
X645611Y40744D01*
X645655Y40723D01*
X645764Y40702D01*
X645871Y40673D01*
X645920Y40672D01*
X645968Y40663D01*
X646078Y40670D01*
X646189Y40669D01*
X646236Y40680D01*
X646285Y40683D01*
X646390Y40717D01*
X646498Y40743D01*
X646541Y40766D01*
X646587Y40781D01*
X646681Y40840D01*
X646779Y40892D01*
X646815Y40925D01*
X646856Y40951D01*
X646932Y41032D01*
X647014Y41106D01*
X647041Y41147D01*
X647074Y41183D01*
X647127Y41280D01*
X647188Y41372D01*
X647204Y41419D01*
X647228Y41461D01*
X647255Y41568D01*
X647291Y41673D01*
X647295Y41722D01*
X647307Y41769D01*
X647317Y41930D01*
X647317Y90713D01*
X647322Y90724D01*
X647370Y90810D01*
X647385Y90869D01*
X647409Y90925D01*
X647424Y91023D01*
X647449Y91118D01*
X647455Y91218D01*
X647459Y91239D01*
X647457Y91251D01*
X647459Y91279D01*
X647459Y530000D01*
X647457Y530022D01*
X647455Y530100D01*
X647133Y534197D01*
X647119Y534264D01*
X647115Y534333D01*
X647075Y534489D01*
X644543Y542282D01*
X644492Y542390D01*
X644449Y542500D01*
X644416Y542551D01*
X644407Y542570D01*
X644394Y542586D01*
X644362Y542636D01*
X639546Y549265D01*
X639465Y549352D01*
X639389Y549443D01*
X639342Y549482D01*
X639328Y549497D01*
X639311Y549508D01*
X639265Y549546D01*
X632636Y554362D01*
X632532Y554420D01*
X632432Y554483D01*
X632375Y554506D01*
X632357Y554516D01*
X632338Y554521D01*
X632282Y554543D01*
X624489Y557075D01*
X624421Y557088D01*
X624356Y557110D01*
X624197Y557133D01*
X620100Y557455D01*
X620078Y557454D01*
X620000Y557459D01*
X30000Y557459D01*
X29978Y557457D01*
X29900Y557455D01*
X25803Y557133D01*
X25736Y557119D01*
X25667Y557115D01*
X25511Y557075D01*
X17718Y554543D01*
X17610Y554492D01*
X17500Y554449D01*
X17449Y554416D01*
X17430Y554407D01*
X17414Y554394D01*
X17364Y554362D01*
X10735Y549546D01*
X10648Y549465D01*
X10557Y549389D01*
X10518Y549342D01*
X10503Y549328D01*
X10492Y549311D01*
X10454Y549265D01*
X5638Y542636D01*
X5580Y542532D01*
X5517Y542432D01*
X5494Y542375D01*
X5484Y542357D01*
X5479Y542338D01*
X5457Y542282D01*
X2925Y534489D01*
X2912Y534422D01*
X2890Y534356D01*
X2867Y534197D01*
X2545Y530100D01*
X2546Y530078D01*
X2541Y530000D01*
X2541Y375000D01*
X2543Y374980D01*
X2547Y374876D01*
X2666Y373668D01*
X2689Y373564D01*
X2704Y373459D01*
X2732Y373379D01*
X2736Y373358D01*
X2744Y373344D01*
X2756Y373307D01*
X3681Y371075D01*
X3685Y371067D01*
X3688Y371058D01*
X3764Y370928D01*
X3838Y370799D01*
X3845Y370792D01*
X3849Y370784D01*
X3956Y370664D01*
X5664Y368956D01*
X5671Y368950D01*
X5677Y368943D01*
X5796Y368853D01*
X5915Y368761D01*
X5923Y368757D01*
X5931Y368751D01*
X6075Y368681D01*
X8307Y367756D01*
X8409Y367728D01*
X8509Y367692D01*
X8592Y367678D01*
X8613Y367672D01*
X8629Y367672D01*
X8668Y367666D01*
X9876Y367547D01*
X9895Y367547D01*
X10000Y367541D01*
X42495Y367541D01*
X47104Y365632D01*
X50632Y362104D01*
X52541Y357495D01*
X52541Y202505D01*
X50632Y197896D01*
X47104Y194368D01*
X42495Y192459D01*
X10000Y192459D01*
X9980Y192457D01*
X9876Y192453D01*
X8668Y192334D01*
X8564Y192311D01*
X8459Y192296D01*
X8379Y192268D01*
X8358Y192264D01*
X8344Y192256D01*
X8307Y192244D01*
X6075Y191319D01*
X6067Y191315D01*
X6058Y191312D01*
X5928Y191236D01*
X5799Y191162D01*
X5792Y191155D01*
X5784Y191151D01*
X5664Y191044D01*
X3956Y189336D01*
X3950Y189329D01*
X3943Y189323D01*
X3853Y189204D01*
X3761Y189085D01*
X3757Y189077D01*
X3751Y189069D01*
X3681Y188925D01*
X2756Y186693D01*
X2728Y186591D01*
X2692Y186491D01*
X2678Y186408D01*
X2672Y186387D01*
X2672Y186371D01*
X2666Y186332D01*
X2547Y185124D01*
X2547Y185105D01*
X2541Y185000D01*
X2541Y30000D01*
X2543Y29978D01*
X2545Y29900D01*
X2867Y25803D01*
X2881Y25736D01*
X2885Y25667D01*
X2925Y25511D01*
X5457Y17718D01*
X5508Y17610D01*
X5551Y17500D01*
X5584Y17449D01*
X5593Y17430D01*
X5606Y17414D01*
X5638Y17364D01*
X10454Y10735D01*
X10535Y10648D01*
X10611Y10557D01*
X10658Y10518D01*
X10672Y10503D01*
X10689Y10492D01*
X10735Y10454D01*
X10810Y10399D01*
X17364Y5638D01*
X17468Y5580D01*
X17568Y5517D01*
X17625Y5494D01*
X17643Y5484D01*
X17662Y5479D01*
X17718Y5457D01*
X25511Y2925D01*
X25579Y2912D01*
X25644Y2890D01*
X25803Y2867D01*
X29900Y2545D01*
X29922Y2546D01*
X30000Y2541D01*
X604564Y2541D01*
X604569Y2541D01*
G37*
%LPC*%
G36*
X230144Y253295D02*
X230144Y253295D01*
X227731Y254295D01*
X225885Y256141D01*
X224885Y258554D01*
X224885Y261166D01*
X225296Y262158D01*
X225304Y262187D01*
X225318Y262213D01*
X225346Y262340D01*
X225380Y262465D01*
X225381Y262495D01*
X225387Y262524D01*
X225383Y262653D01*
X225385Y262783D01*
X225379Y262812D01*
X225378Y262841D01*
X225342Y262966D01*
X225311Y263092D01*
X225297Y263119D01*
X225289Y263147D01*
X225223Y263259D01*
X225163Y263374D01*
X225143Y263395D01*
X225128Y263421D01*
X225021Y263542D01*
X222190Y266373D01*
X220527Y270387D01*
X220527Y309420D01*
X220515Y309518D01*
X220512Y309617D01*
X220495Y309675D01*
X220487Y309735D01*
X220451Y309828D01*
X220423Y309923D01*
X220393Y309975D01*
X220370Y310031D01*
X220312Y310111D01*
X220262Y310197D01*
X220196Y310272D01*
X220184Y310288D01*
X220174Y310296D01*
X220156Y310317D01*
X186630Y343843D01*
X184967Y347857D01*
X184967Y365662D01*
X184950Y365800D01*
X184937Y365939D01*
X184930Y365958D01*
X184927Y365978D01*
X184876Y366107D01*
X184829Y366238D01*
X184818Y366255D01*
X184810Y366273D01*
X184729Y366386D01*
X184651Y366501D01*
X184635Y366514D01*
X184624Y366531D01*
X184516Y366620D01*
X184412Y366712D01*
X184394Y366721D01*
X184379Y366734D01*
X184253Y366793D01*
X184129Y366856D01*
X184109Y366861D01*
X184091Y366869D01*
X183954Y366895D01*
X183819Y366926D01*
X183798Y366925D01*
X183779Y366929D01*
X183640Y366920D01*
X183501Y366916D01*
X183481Y366910D01*
X183461Y366909D01*
X183329Y366866D01*
X183195Y366828D01*
X183178Y366817D01*
X183159Y366811D01*
X183041Y366737D01*
X182921Y366666D01*
X182900Y366648D01*
X182890Y366641D01*
X182876Y366626D01*
X182801Y366560D01*
X181647Y365406D01*
X181646Y365406D01*
X161698Y345457D01*
X91242Y345457D01*
X91124Y345442D01*
X91005Y345435D01*
X90967Y345422D01*
X90926Y345417D01*
X90816Y345374D01*
X90703Y345337D01*
X90668Y345315D01*
X90631Y345300D01*
X90535Y345231D01*
X90434Y345167D01*
X90406Y345137D01*
X90373Y345114D01*
X90297Y345022D01*
X90216Y344935D01*
X90196Y344900D01*
X90171Y344869D01*
X90120Y344761D01*
X90062Y344657D01*
X90052Y344617D01*
X90035Y344581D01*
X90013Y344464D01*
X89983Y344349D01*
X89979Y344289D01*
X89975Y344269D01*
X89977Y344248D01*
X89976Y344239D01*
X83574Y337837D01*
X74526Y337837D01*
X68127Y344236D01*
X68127Y353284D01*
X74526Y359683D01*
X83574Y359683D01*
X89980Y353277D01*
X89988Y353214D01*
X89995Y353095D01*
X90008Y353057D01*
X90013Y353016D01*
X90056Y352906D01*
X90093Y352793D01*
X90115Y352758D01*
X90130Y352721D01*
X90199Y352625D01*
X90263Y352524D01*
X90293Y352496D01*
X90316Y352463D01*
X90408Y352387D01*
X90495Y352306D01*
X90530Y352286D01*
X90561Y352261D01*
X90669Y352210D01*
X90773Y352152D01*
X90813Y352142D01*
X90849Y352125D01*
X90966Y352103D01*
X91081Y352073D01*
X91141Y352069D01*
X91161Y352065D01*
X91182Y352067D01*
X91242Y352063D01*
X158436Y352063D01*
X158534Y352075D01*
X158633Y352078D01*
X158692Y352095D01*
X158752Y352103D01*
X158844Y352139D01*
X158939Y352167D01*
X158991Y352197D01*
X159047Y352220D01*
X159127Y352278D01*
X159213Y352328D01*
X159288Y352394D01*
X159305Y352406D01*
X159313Y352416D01*
X159334Y352434D01*
X176976Y370076D01*
X177036Y370155D01*
X177104Y370227D01*
X177133Y370280D01*
X177170Y370328D01*
X177210Y370419D01*
X177258Y370505D01*
X177273Y370564D01*
X177297Y370619D01*
X177312Y370717D01*
X177337Y370813D01*
X177343Y370913D01*
X177347Y370934D01*
X177345Y370946D01*
X177347Y370974D01*
X177347Y451728D01*
X182256Y456637D01*
X182329Y456731D01*
X182408Y456820D01*
X182426Y456856D01*
X182451Y456888D01*
X182499Y456998D01*
X182553Y457104D01*
X182562Y457143D01*
X182578Y457180D01*
X182596Y457298D01*
X182622Y457414D01*
X182621Y457454D01*
X182627Y457494D01*
X182616Y457613D01*
X182613Y457732D01*
X182601Y457771D01*
X182598Y457811D01*
X182557Y457923D01*
X182524Y458037D01*
X182504Y458072D01*
X182490Y458110D01*
X182423Y458209D01*
X182363Y458311D01*
X182323Y458357D01*
X182311Y458373D01*
X182296Y458387D01*
X182256Y458432D01*
X161109Y479580D01*
X161031Y479640D01*
X160959Y479708D01*
X160906Y479737D01*
X160858Y479774D01*
X160767Y479814D01*
X160680Y479862D01*
X160621Y479877D01*
X160566Y479901D01*
X160468Y479916D01*
X160372Y479941D01*
X160272Y479947D01*
X160252Y479951D01*
X160239Y479949D01*
X160211Y479951D01*
X158009Y479951D01*
X157911Y479939D01*
X157812Y479936D01*
X157754Y479919D01*
X157694Y479911D01*
X157602Y479875D01*
X157507Y479847D01*
X157454Y479817D01*
X157398Y479794D01*
X157318Y479736D01*
X157233Y479686D01*
X157157Y479620D01*
X157141Y479608D01*
X157133Y479598D01*
X157112Y479580D01*
X155418Y477885D01*
X153200Y476967D01*
X150800Y476967D01*
X148582Y477885D01*
X146885Y479582D01*
X145967Y481800D01*
X145967Y484200D01*
X146885Y486418D01*
X148582Y488115D01*
X150800Y489033D01*
X153200Y489033D01*
X155418Y488115D01*
X157112Y486420D01*
X157190Y486360D01*
X157262Y486292D01*
X157315Y486263D01*
X157363Y486226D01*
X157454Y486186D01*
X157541Y486138D01*
X157599Y486123D01*
X157655Y486099D01*
X157753Y486084D01*
X157849Y486059D01*
X157949Y486053D01*
X157969Y486049D01*
X157981Y486051D01*
X158009Y486049D01*
X163263Y486049D01*
X186568Y462744D01*
X186662Y462671D01*
X186751Y462592D01*
X186787Y462574D01*
X186819Y462549D01*
X186929Y462501D01*
X187034Y462447D01*
X187074Y462438D01*
X187111Y462422D01*
X187229Y462404D01*
X187345Y462378D01*
X187385Y462379D01*
X187425Y462373D01*
X187544Y462384D01*
X187663Y462387D01*
X187701Y462399D01*
X187742Y462402D01*
X187854Y462443D01*
X187968Y462476D01*
X188003Y462496D01*
X188041Y462510D01*
X188140Y462577D01*
X188242Y462637D01*
X188287Y462677D01*
X188304Y462689D01*
X188318Y462704D01*
X188363Y462744D01*
X192216Y466596D01*
X194522Y468903D01*
X242978Y468903D01*
X247453Y464428D01*
X247453Y390024D01*
X247465Y389926D01*
X247468Y389827D01*
X247485Y389768D01*
X247493Y389708D01*
X247529Y389616D01*
X247557Y389521D01*
X247587Y389469D01*
X247610Y389413D01*
X247668Y389333D01*
X247718Y389247D01*
X247784Y389172D01*
X247796Y389155D01*
X247806Y389147D01*
X247824Y389126D01*
X255306Y381644D01*
X255385Y381584D01*
X255457Y381516D01*
X255510Y381487D01*
X255558Y381450D01*
X255649Y381410D01*
X255735Y381362D01*
X255794Y381347D01*
X255849Y381323D01*
X255947Y381308D01*
X256043Y381283D01*
X256143Y381277D01*
X256164Y381273D01*
X256176Y381275D01*
X256204Y381273D01*
X313071Y381273D01*
X313209Y381290D01*
X313347Y381303D01*
X313366Y381310D01*
X313386Y381313D01*
X313515Y381364D01*
X313646Y381411D01*
X313663Y381422D01*
X313682Y381430D01*
X313794Y381511D01*
X313910Y381589D01*
X313923Y381605D01*
X313939Y381616D01*
X314028Y381724D01*
X314120Y381828D01*
X314129Y381846D01*
X314142Y381861D01*
X314201Y381987D01*
X314265Y382111D01*
X314269Y382131D01*
X314278Y382149D01*
X314304Y382286D01*
X314334Y382421D01*
X314334Y382442D01*
X314337Y382461D01*
X314329Y382600D01*
X314325Y382739D01*
X314319Y382759D01*
X314318Y382779D01*
X314275Y382911D01*
X314236Y383045D01*
X314226Y383062D01*
X314220Y383081D01*
X314145Y383199D01*
X314075Y383319D01*
X314056Y383340D01*
X314050Y383350D01*
X314035Y383364D01*
X313968Y383439D01*
X312952Y384456D01*
X312874Y384516D01*
X312802Y384584D01*
X312749Y384613D01*
X312701Y384650D01*
X312610Y384690D01*
X312523Y384738D01*
X312465Y384753D01*
X312409Y384777D01*
X312311Y384792D01*
X312215Y384817D01*
X312115Y384823D01*
X312095Y384827D01*
X312083Y384825D01*
X312055Y384827D01*
X294852Y384827D01*
X292917Y386762D01*
X292917Y413628D01*
X295223Y415934D01*
X295224Y415934D01*
X306400Y427111D01*
X306485Y427220D01*
X306574Y427327D01*
X306582Y427346D01*
X306595Y427362D01*
X306650Y427490D01*
X306709Y427615D01*
X306713Y427635D01*
X306721Y427654D01*
X306743Y427792D01*
X306769Y427928D01*
X306768Y427948D01*
X306771Y427968D01*
X306758Y428107D01*
X306749Y428245D01*
X306743Y428264D01*
X306741Y428284D01*
X306694Y428416D01*
X306651Y428547D01*
X306640Y428565D01*
X306633Y428584D01*
X306555Y428699D01*
X306481Y428816D01*
X306466Y428830D01*
X306455Y428847D01*
X306351Y428939D01*
X306249Y429034D01*
X306232Y429044D01*
X306216Y429057D01*
X306093Y429120D01*
X305971Y429188D01*
X305951Y429193D01*
X305933Y429202D01*
X305797Y429232D01*
X305663Y429267D01*
X305635Y429269D01*
X305623Y429272D01*
X305602Y429271D01*
X305502Y429277D01*
X298114Y429277D01*
X298016Y429265D01*
X297917Y429262D01*
X297858Y429245D01*
X297798Y429237D01*
X297706Y429201D01*
X297611Y429173D01*
X297559Y429143D01*
X297503Y429120D01*
X297423Y429062D01*
X297337Y429012D01*
X297262Y428946D01*
X297245Y428934D01*
X297237Y428924D01*
X297216Y428906D01*
X284654Y416344D01*
X284594Y416265D01*
X284526Y416193D01*
X284497Y416140D01*
X284460Y416092D01*
X284420Y416001D01*
X284372Y415915D01*
X284357Y415856D01*
X284333Y415801D01*
X284318Y415703D01*
X284293Y415607D01*
X284287Y415507D01*
X284283Y415486D01*
X284285Y415474D01*
X284283Y415446D01*
X284283Y406585D01*
X284295Y406487D01*
X284298Y406388D01*
X284315Y406330D01*
X284323Y406270D01*
X284359Y406178D01*
X284387Y406083D01*
X284417Y406030D01*
X284440Y405974D01*
X284498Y405894D01*
X284548Y405809D01*
X284614Y405733D01*
X284626Y405717D01*
X284636Y405709D01*
X284654Y405688D01*
X286095Y404248D01*
X287013Y402030D01*
X287013Y399630D01*
X286095Y397412D01*
X284398Y395715D01*
X282180Y394797D01*
X279780Y394797D01*
X277562Y395715D01*
X275865Y397412D01*
X274947Y399630D01*
X274947Y402030D01*
X275865Y404248D01*
X277306Y405688D01*
X277366Y405766D01*
X277434Y405838D01*
X277463Y405891D01*
X277500Y405939D01*
X277540Y406030D01*
X277588Y406117D01*
X277603Y406175D01*
X277627Y406231D01*
X277642Y406329D01*
X277667Y406425D01*
X277673Y406525D01*
X277677Y406545D01*
X277675Y406557D01*
X277677Y406585D01*
X277677Y418708D01*
X294852Y435883D01*
X344972Y435883D01*
X345110Y435900D01*
X345249Y435913D01*
X345268Y435920D01*
X345288Y435923D01*
X345417Y435974D01*
X345548Y436021D01*
X345565Y436032D01*
X345584Y436040D01*
X345696Y436121D01*
X345811Y436199D01*
X345824Y436215D01*
X345841Y436226D01*
X345930Y436334D01*
X346022Y436438D01*
X346031Y436456D01*
X346044Y436471D01*
X346103Y436597D01*
X346166Y436721D01*
X346171Y436741D01*
X346179Y436759D01*
X346205Y436895D01*
X346236Y437031D01*
X346235Y437052D01*
X346239Y437071D01*
X346230Y437210D01*
X346226Y437349D01*
X346220Y437369D01*
X346219Y437389D01*
X346176Y437521D01*
X346138Y437655D01*
X346127Y437672D01*
X346121Y437691D01*
X346047Y437809D01*
X345976Y437929D01*
X345958Y437950D01*
X345951Y437960D01*
X345936Y437974D01*
X345870Y438049D01*
X342167Y441752D01*
X340195Y446513D01*
X340195Y451667D01*
X342167Y456428D01*
X345812Y460073D01*
X350573Y462045D01*
X355727Y462045D01*
X360488Y460073D01*
X364133Y456428D01*
X366105Y451667D01*
X366105Y446513D01*
X364133Y441752D01*
X360430Y438049D01*
X360345Y437940D01*
X360256Y437833D01*
X360248Y437814D01*
X360235Y437798D01*
X360180Y437670D01*
X360121Y437545D01*
X360117Y437525D01*
X360109Y437506D01*
X360087Y437368D01*
X360061Y437232D01*
X360062Y437212D01*
X360059Y437192D01*
X360072Y437053D01*
X360081Y436915D01*
X360087Y436896D01*
X360089Y436876D01*
X360136Y436744D01*
X360179Y436613D01*
X360190Y436595D01*
X360196Y436576D01*
X360275Y436461D01*
X360349Y436344D01*
X360364Y436330D01*
X360375Y436313D01*
X360479Y436221D01*
X360581Y436126D01*
X360598Y436116D01*
X360613Y436103D01*
X360738Y436039D01*
X360859Y435972D01*
X360879Y435967D01*
X360897Y435958D01*
X361033Y435928D01*
X361167Y435893D01*
X361195Y435891D01*
X361207Y435888D01*
X361228Y435889D01*
X361328Y435883D01*
X379518Y435883D01*
X379597Y435893D01*
X379676Y435893D01*
X379754Y435913D01*
X379833Y435923D01*
X379907Y435952D01*
X379985Y435972D01*
X380055Y436010D01*
X380129Y436040D01*
X380193Y436086D01*
X380263Y436125D01*
X380322Y436179D01*
X380386Y436226D01*
X380437Y436288D01*
X380495Y436342D01*
X380538Y436410D01*
X380589Y436471D01*
X380623Y436543D01*
X380666Y436611D01*
X380691Y436687D01*
X380725Y436759D01*
X380740Y436837D01*
X380764Y436913D01*
X380769Y436993D01*
X380784Y437071D01*
X380780Y437151D01*
X380785Y437230D01*
X380770Y437309D01*
X380765Y437389D01*
X380740Y437465D01*
X380725Y437543D01*
X380691Y437615D01*
X380667Y437691D01*
X380624Y437759D01*
X380590Y437831D01*
X380539Y437893D01*
X380497Y437960D01*
X380439Y438015D01*
X380388Y438076D01*
X380266Y438177D01*
X380265Y438178D01*
X380264Y438178D01*
X380264Y438179D01*
X379380Y438821D01*
X377881Y440320D01*
X376636Y442034D01*
X375674Y443922D01*
X375019Y445937D01*
X374915Y446591D01*
X386920Y446591D01*
X387038Y446606D01*
X387157Y446613D01*
X387195Y446625D01*
X387235Y446631D01*
X387346Y446674D01*
X387459Y446711D01*
X387493Y446733D01*
X387531Y446748D01*
X387627Y446817D01*
X387728Y446881D01*
X387756Y446911D01*
X387788Y446934D01*
X387864Y447026D01*
X387946Y447113D01*
X387965Y447148D01*
X387991Y447179D01*
X388042Y447287D01*
X388099Y447391D01*
X388109Y447431D01*
X388127Y447467D01*
X388147Y447574D01*
X388151Y447544D01*
X388195Y447434D01*
X388231Y447321D01*
X388253Y447286D01*
X388268Y447249D01*
X388338Y447152D01*
X388401Y447052D01*
X388431Y447024D01*
X388455Y446991D01*
X388546Y446915D01*
X388633Y446834D01*
X388668Y446814D01*
X388700Y446789D01*
X388807Y446738D01*
X388912Y446680D01*
X388951Y446670D01*
X388987Y446653D01*
X389104Y446631D01*
X389220Y446601D01*
X389280Y446597D01*
X389300Y446593D01*
X389320Y446595D01*
X389380Y446591D01*
X401385Y446591D01*
X401281Y445937D01*
X400626Y443922D01*
X399664Y442034D01*
X398419Y440320D01*
X396920Y438821D01*
X396036Y438179D01*
X395978Y438124D01*
X395914Y438078D01*
X395863Y438016D01*
X395804Y437961D01*
X395762Y437894D01*
X395711Y437833D01*
X395677Y437760D01*
X395634Y437693D01*
X395609Y437617D01*
X395575Y437545D01*
X395560Y437466D01*
X395536Y437390D01*
X395531Y437311D01*
X395516Y437232D01*
X395521Y437153D01*
X395515Y437073D01*
X395530Y436995D01*
X395535Y436915D01*
X395560Y436839D01*
X395575Y436760D01*
X395609Y436688D01*
X395633Y436613D01*
X395676Y436545D01*
X395710Y436473D01*
X395761Y436411D01*
X395803Y436344D01*
X395862Y436289D01*
X395913Y436227D01*
X395977Y436180D01*
X396035Y436126D01*
X396105Y436087D01*
X396170Y436040D01*
X396244Y436011D01*
X396314Y435972D01*
X396391Y435952D01*
X396465Y435923D01*
X396544Y435913D01*
X396622Y435893D01*
X396779Y435883D01*
X396781Y435883D01*
X396782Y435883D01*
X466414Y435883D01*
X466484Y435891D01*
X466553Y435890D01*
X466641Y435911D01*
X466730Y435923D01*
X466795Y435948D01*
X466863Y435965D01*
X466942Y436007D01*
X467026Y436040D01*
X467082Y436081D01*
X467144Y436113D01*
X467210Y436174D01*
X467283Y436226D01*
X467328Y436280D01*
X467379Y436327D01*
X467428Y436402D01*
X467486Y436471D01*
X467516Y436535D01*
X467554Y436593D01*
X467583Y436678D01*
X467621Y436759D01*
X467634Y436828D01*
X467657Y436894D01*
X467664Y436983D01*
X467681Y437071D01*
X467677Y437141D01*
X467682Y437211D01*
X467667Y437299D01*
X467661Y437389D01*
X467640Y437455D01*
X467628Y437524D01*
X467591Y437606D01*
X467563Y437691D01*
X467526Y437750D01*
X467497Y437814D01*
X467441Y437884D01*
X467393Y437960D01*
X467342Y438008D01*
X467299Y438062D01*
X467227Y438117D01*
X467162Y438178D01*
X467100Y438212D01*
X467045Y438254D01*
X466900Y438325D01*
X465522Y438895D01*
X463825Y440592D01*
X462907Y442810D01*
X462907Y445210D01*
X463825Y447428D01*
X465266Y448868D01*
X465326Y448946D01*
X465394Y449018D01*
X465423Y449071D01*
X465460Y449119D01*
X465500Y449210D01*
X465548Y449297D01*
X465563Y449355D01*
X465587Y449411D01*
X465602Y449509D01*
X465627Y449605D01*
X465633Y449705D01*
X465637Y449725D01*
X465635Y449737D01*
X465637Y449765D01*
X465637Y457238D01*
X465634Y457267D01*
X465636Y457297D01*
X465614Y457424D01*
X465597Y457553D01*
X465587Y457581D01*
X465581Y457610D01*
X465528Y457728D01*
X465480Y457849D01*
X465463Y457873D01*
X465451Y457900D01*
X465370Y458001D01*
X465294Y458106D01*
X465271Y458125D01*
X465252Y458148D01*
X465149Y458226D01*
X465049Y458309D01*
X465022Y458322D01*
X464998Y458340D01*
X464972Y458353D01*
X462978Y460346D01*
X461907Y462931D01*
X461907Y465729D01*
X462978Y468314D01*
X464956Y470292D01*
X467541Y471363D01*
X470339Y471363D01*
X472924Y470292D01*
X474902Y468314D01*
X475973Y465729D01*
X475973Y462931D01*
X474902Y460346D01*
X472891Y458335D01*
X472863Y458317D01*
X472750Y458253D01*
X472729Y458232D01*
X472704Y458217D01*
X472615Y458122D01*
X472522Y458032D01*
X472506Y458007D01*
X472486Y457985D01*
X472423Y457871D01*
X472355Y457761D01*
X472347Y457732D01*
X472332Y457706D01*
X472300Y457581D01*
X472262Y457457D01*
X472260Y457427D01*
X472253Y457398D01*
X472243Y457238D01*
X472243Y449765D01*
X472255Y449667D01*
X472258Y449568D01*
X472275Y449510D01*
X472283Y449450D01*
X472319Y449358D01*
X472347Y449263D01*
X472377Y449210D01*
X472400Y449154D01*
X472458Y449074D01*
X472508Y448989D01*
X472574Y448913D01*
X472586Y448897D01*
X472596Y448889D01*
X472614Y448868D01*
X474055Y447428D01*
X474973Y445210D01*
X474973Y445130D01*
X474991Y444992D01*
X475004Y444853D01*
X475011Y444834D01*
X475013Y444814D01*
X475064Y444685D01*
X475111Y444554D01*
X475123Y444537D01*
X475130Y444519D01*
X475212Y444406D01*
X475290Y444291D01*
X475305Y444278D01*
X475317Y444261D01*
X475424Y444172D01*
X475528Y444080D01*
X475546Y444071D01*
X475562Y444058D01*
X475688Y443999D01*
X475812Y443936D01*
X475831Y443931D01*
X475850Y443923D01*
X475986Y443897D01*
X476122Y443866D01*
X476142Y443867D01*
X476162Y443863D01*
X476300Y443872D01*
X476440Y443876D01*
X476459Y443882D01*
X476479Y443883D01*
X476611Y443926D01*
X476745Y443964D01*
X476763Y443975D01*
X476782Y443981D01*
X476900Y444055D01*
X477019Y444126D01*
X477040Y444144D01*
X477051Y444151D01*
X477065Y444166D01*
X477140Y444232D01*
X478222Y445315D01*
X480440Y446233D01*
X482840Y446233D01*
X485058Y445315D01*
X486483Y443889D01*
X486577Y443816D01*
X486667Y443737D01*
X486703Y443719D01*
X486735Y443694D01*
X486844Y443647D01*
X486950Y443593D01*
X486989Y443584D01*
X487026Y443568D01*
X487144Y443549D01*
X487260Y443523D01*
X487300Y443524D01*
X487340Y443518D01*
X487459Y443529D01*
X487578Y443533D01*
X487617Y443544D01*
X487657Y443548D01*
X487769Y443588D01*
X487883Y443621D01*
X487918Y443642D01*
X487956Y443655D01*
X488055Y443722D01*
X488157Y443783D01*
X488203Y443822D01*
X488219Y443834D01*
X488233Y443849D01*
X488278Y443889D01*
X490666Y446276D01*
X490726Y446355D01*
X490794Y446427D01*
X490823Y446480D01*
X490860Y446528D01*
X490900Y446619D01*
X490948Y446705D01*
X490963Y446764D01*
X490987Y446819D01*
X491002Y446917D01*
X491027Y447013D01*
X491033Y447113D01*
X491037Y447134D01*
X491035Y447146D01*
X491037Y447174D01*
X491037Y457238D01*
X491034Y457267D01*
X491036Y457296D01*
X491014Y457425D01*
X490997Y457553D01*
X490987Y457581D01*
X490982Y457610D01*
X490928Y457728D01*
X490880Y457849D01*
X490863Y457873D01*
X490851Y457900D01*
X490770Y458001D01*
X490694Y458106D01*
X490671Y458125D01*
X490652Y458148D01*
X490549Y458226D01*
X490449Y458309D01*
X490422Y458322D01*
X490398Y458339D01*
X490372Y458352D01*
X488378Y460346D01*
X487307Y462931D01*
X487307Y465729D01*
X488378Y468314D01*
X490356Y470292D01*
X492941Y471363D01*
X495739Y471363D01*
X498324Y470292D01*
X500302Y468314D01*
X501373Y465729D01*
X501373Y462931D01*
X500302Y460346D01*
X498290Y458335D01*
X498263Y458317D01*
X498150Y458253D01*
X498129Y458232D01*
X498104Y458217D01*
X498015Y458122D01*
X497922Y458031D01*
X497906Y458006D01*
X497886Y457985D01*
X497823Y457871D01*
X497755Y457760D01*
X497747Y457732D01*
X497732Y457706D01*
X497700Y457581D01*
X497662Y457456D01*
X497660Y457427D01*
X497653Y457398D01*
X497643Y457238D01*
X497643Y443912D01*
X490628Y436897D01*
X487395Y436897D01*
X487297Y436885D01*
X487198Y436882D01*
X487140Y436865D01*
X487080Y436857D01*
X486988Y436821D01*
X486893Y436793D01*
X486840Y436763D01*
X486784Y436740D01*
X486704Y436682D01*
X486619Y436632D01*
X486543Y436566D01*
X486527Y436554D01*
X486519Y436544D01*
X486498Y436526D01*
X485314Y435342D01*
X485254Y435264D01*
X485186Y435192D01*
X485157Y435139D01*
X485120Y435091D01*
X485080Y435000D01*
X485032Y434913D01*
X485017Y434855D01*
X484993Y434799D01*
X484978Y434701D01*
X484953Y434605D01*
X484947Y434505D01*
X484943Y434485D01*
X484945Y434473D01*
X484943Y434445D01*
X484943Y433752D01*
X484160Y432969D01*
X484075Y432860D01*
X483986Y432753D01*
X483978Y432734D01*
X483965Y432718D01*
X483910Y432591D01*
X483851Y432465D01*
X483847Y432445D01*
X483839Y432426D01*
X483817Y432288D01*
X483791Y432152D01*
X483792Y432132D01*
X483789Y432112D01*
X483802Y431973D01*
X483811Y431835D01*
X483817Y431816D01*
X483819Y431796D01*
X483866Y431664D01*
X483909Y431533D01*
X483920Y431515D01*
X483927Y431496D01*
X484005Y431381D01*
X484079Y431264D01*
X484094Y431250D01*
X484105Y431233D01*
X484209Y431141D01*
X484311Y431046D01*
X484328Y431036D01*
X484344Y431023D01*
X484467Y430960D01*
X484589Y430892D01*
X484609Y430887D01*
X484627Y430878D01*
X484763Y430848D01*
X484897Y430813D01*
X484925Y430811D01*
X484937Y430808D01*
X484958Y430809D01*
X485058Y430803D01*
X500066Y430803D01*
X500164Y430815D01*
X500263Y430818D01*
X500322Y430835D01*
X500382Y430843D01*
X500474Y430879D01*
X500569Y430907D01*
X500621Y430937D01*
X500677Y430960D01*
X500757Y431018D01*
X500843Y431068D01*
X500918Y431134D01*
X500935Y431146D01*
X500943Y431156D01*
X500964Y431174D01*
X503351Y433562D01*
X503424Y433656D01*
X503503Y433745D01*
X503521Y433781D01*
X503546Y433813D01*
X503593Y433923D01*
X503647Y434028D01*
X503656Y434068D01*
X503672Y434105D01*
X503691Y434223D01*
X503717Y434339D01*
X503716Y434379D01*
X503722Y434419D01*
X503711Y434538D01*
X503707Y434657D01*
X503696Y434695D01*
X503692Y434736D01*
X503652Y434848D01*
X503619Y434962D01*
X503598Y434997D01*
X503585Y435035D01*
X503518Y435134D01*
X503457Y435236D01*
X503418Y435281D01*
X503406Y435298D01*
X503391Y435312D01*
X503351Y435357D01*
X501925Y436782D01*
X501007Y439000D01*
X501007Y441400D01*
X501925Y443618D01*
X503622Y445315D01*
X505840Y446233D01*
X507877Y446233D01*
X507975Y446246D01*
X508074Y446249D01*
X508132Y446265D01*
X508192Y446273D01*
X508284Y446310D01*
X508379Y446337D01*
X508432Y446368D01*
X508488Y446390D01*
X508568Y446448D01*
X508653Y446499D01*
X508729Y446565D01*
X508745Y446577D01*
X508753Y446586D01*
X508774Y446605D01*
X516066Y453896D01*
X516126Y453975D01*
X516194Y454047D01*
X516223Y454100D01*
X516260Y454148D01*
X516300Y454239D01*
X516348Y454325D01*
X516363Y454384D01*
X516387Y454439D01*
X516402Y454537D01*
X516427Y454633D01*
X516433Y454733D01*
X516437Y454754D01*
X516435Y454766D01*
X516437Y454794D01*
X516437Y457238D01*
X516434Y457267D01*
X516436Y457296D01*
X516414Y457425D01*
X516397Y457553D01*
X516387Y457581D01*
X516382Y457610D01*
X516328Y457728D01*
X516280Y457849D01*
X516263Y457873D01*
X516251Y457900D01*
X516170Y458001D01*
X516094Y458106D01*
X516071Y458125D01*
X516052Y458148D01*
X515949Y458226D01*
X515849Y458309D01*
X515822Y458322D01*
X515798Y458339D01*
X515772Y458352D01*
X513778Y460346D01*
X512707Y462931D01*
X512707Y465729D01*
X513778Y468314D01*
X515756Y470292D01*
X518341Y471363D01*
X521139Y471363D01*
X523724Y470292D01*
X525702Y468314D01*
X526773Y465729D01*
X526773Y462931D01*
X525702Y460346D01*
X523690Y458335D01*
X523663Y458317D01*
X523550Y458253D01*
X523529Y458232D01*
X523504Y458217D01*
X523415Y458122D01*
X523322Y458031D01*
X523306Y458006D01*
X523286Y457985D01*
X523223Y457871D01*
X523155Y457760D01*
X523147Y457732D01*
X523132Y457706D01*
X523100Y457581D01*
X523062Y457456D01*
X523060Y457427D01*
X523053Y457398D01*
X523043Y457238D01*
X523043Y451532D01*
X513445Y441934D01*
X513384Y441856D01*
X513316Y441784D01*
X513287Y441731D01*
X513250Y441683D01*
X513211Y441592D01*
X513163Y441505D01*
X513148Y441447D01*
X513124Y441391D01*
X513108Y441293D01*
X513083Y441197D01*
X513077Y441097D01*
X513074Y441077D01*
X513075Y441065D01*
X513073Y441037D01*
X513073Y439000D01*
X512155Y436782D01*
X510714Y435342D01*
X510654Y435264D01*
X510586Y435192D01*
X510557Y435139D01*
X510520Y435091D01*
X510480Y435000D01*
X510432Y434913D01*
X510417Y434855D01*
X510393Y434799D01*
X510378Y434701D01*
X510353Y434605D01*
X510347Y434505D01*
X510343Y434485D01*
X510345Y434473D01*
X510343Y434445D01*
X510343Y431212D01*
X507020Y427889D01*
X506935Y427779D01*
X506846Y427673D01*
X506838Y427654D01*
X506825Y427638D01*
X506770Y427510D01*
X506711Y427385D01*
X506707Y427365D01*
X506699Y427346D01*
X506677Y427208D01*
X506651Y427072D01*
X506652Y427052D01*
X506649Y427032D01*
X506662Y426893D01*
X506671Y426755D01*
X506677Y426736D01*
X506679Y426716D01*
X506726Y426584D01*
X506769Y426453D01*
X506780Y426435D01*
X506787Y426416D01*
X506865Y426301D01*
X506939Y426184D01*
X506954Y426170D01*
X506965Y426153D01*
X507069Y426061D01*
X507171Y425966D01*
X507188Y425956D01*
X507204Y425943D01*
X507328Y425879D01*
X507449Y425812D01*
X507469Y425807D01*
X507487Y425798D01*
X507623Y425768D01*
X507757Y425733D01*
X507785Y425731D01*
X507797Y425728D01*
X507818Y425729D01*
X507918Y425723D01*
X526736Y425723D01*
X526834Y425735D01*
X526933Y425738D01*
X526992Y425755D01*
X527052Y425763D01*
X527144Y425799D01*
X527239Y425827D01*
X527291Y425857D01*
X527347Y425880D01*
X527427Y425938D01*
X527513Y425988D01*
X527588Y426054D01*
X527605Y426066D01*
X527613Y426076D01*
X527634Y426094D01*
X528766Y427226D01*
X528826Y427305D01*
X528894Y427377D01*
X528923Y427430D01*
X528960Y427478D01*
X529000Y427569D01*
X529048Y427655D01*
X529063Y427714D01*
X529087Y427769D01*
X529102Y427867D01*
X529127Y427963D01*
X529133Y428063D01*
X529137Y428084D01*
X529135Y428096D01*
X529137Y428124D01*
X529137Y434445D01*
X529125Y434543D01*
X529122Y434642D01*
X529105Y434700D01*
X529097Y434760D01*
X529061Y434852D01*
X529033Y434947D01*
X529003Y435000D01*
X528980Y435056D01*
X528922Y435136D01*
X528872Y435221D01*
X528806Y435297D01*
X528794Y435313D01*
X528784Y435321D01*
X528766Y435342D01*
X527325Y436782D01*
X526407Y439000D01*
X526407Y441400D01*
X527325Y443618D01*
X529022Y445315D01*
X531240Y446233D01*
X533277Y446233D01*
X533375Y446246D01*
X533474Y446249D01*
X533532Y446265D01*
X533592Y446273D01*
X533684Y446310D01*
X533779Y446337D01*
X533832Y446368D01*
X533888Y446390D01*
X533968Y446448D01*
X534053Y446499D01*
X534129Y446565D01*
X534145Y446577D01*
X534153Y446586D01*
X534174Y446605D01*
X541466Y453896D01*
X541526Y453975D01*
X541594Y454047D01*
X541623Y454100D01*
X541660Y454148D01*
X541700Y454239D01*
X541748Y454325D01*
X541763Y454384D01*
X541787Y454439D01*
X541802Y454537D01*
X541827Y454633D01*
X541833Y454733D01*
X541837Y454754D01*
X541835Y454766D01*
X541837Y454794D01*
X541837Y457238D01*
X541834Y457267D01*
X541836Y457297D01*
X541814Y457424D01*
X541797Y457553D01*
X541787Y457581D01*
X541781Y457610D01*
X541728Y457728D01*
X541680Y457849D01*
X541663Y457873D01*
X541651Y457900D01*
X541570Y458001D01*
X541494Y458106D01*
X541471Y458125D01*
X541452Y458148D01*
X541349Y458226D01*
X541249Y458309D01*
X541222Y458322D01*
X541198Y458340D01*
X541172Y458353D01*
X539178Y460346D01*
X538107Y462931D01*
X538107Y465729D01*
X539178Y468314D01*
X541156Y470292D01*
X543741Y471363D01*
X546539Y471363D01*
X549124Y470292D01*
X551102Y468314D01*
X552173Y465729D01*
X552173Y462931D01*
X551102Y460346D01*
X549091Y458335D01*
X549063Y458317D01*
X548950Y458253D01*
X548929Y458232D01*
X548904Y458217D01*
X548815Y458122D01*
X548722Y458032D01*
X548706Y458007D01*
X548686Y457985D01*
X548623Y457871D01*
X548555Y457761D01*
X548547Y457732D01*
X548532Y457706D01*
X548500Y457581D01*
X548462Y457457D01*
X548460Y457427D01*
X548453Y457398D01*
X548443Y457238D01*
X548443Y451532D01*
X538845Y441934D01*
X538784Y441856D01*
X538716Y441784D01*
X538687Y441731D01*
X538650Y441683D01*
X538611Y441592D01*
X538563Y441505D01*
X538548Y441447D01*
X538524Y441391D01*
X538508Y441293D01*
X538483Y441197D01*
X538477Y441097D01*
X538474Y441077D01*
X538475Y441065D01*
X538473Y441037D01*
X538473Y439000D01*
X537555Y436782D01*
X536114Y435342D01*
X536054Y435264D01*
X535986Y435192D01*
X535957Y435139D01*
X535920Y435091D01*
X535880Y435000D01*
X535832Y434913D01*
X535817Y434855D01*
X535793Y434799D01*
X535778Y434701D01*
X535753Y434605D01*
X535747Y434505D01*
X535743Y434485D01*
X535745Y434473D01*
X535743Y434445D01*
X535743Y424862D01*
X533690Y422809D01*
X533605Y422700D01*
X533516Y422593D01*
X533508Y422574D01*
X533495Y422558D01*
X533440Y422430D01*
X533381Y422305D01*
X533377Y422285D01*
X533369Y422266D01*
X533347Y422128D01*
X533321Y421992D01*
X533322Y421972D01*
X533319Y421952D01*
X533332Y421813D01*
X533341Y421675D01*
X533347Y421656D01*
X533349Y421636D01*
X533396Y421504D01*
X533439Y421373D01*
X533450Y421355D01*
X533457Y421336D01*
X533535Y421221D01*
X533609Y421104D01*
X533624Y421090D01*
X533635Y421073D01*
X533739Y420981D01*
X533841Y420886D01*
X533858Y420876D01*
X533874Y420863D01*
X533998Y420799D01*
X534119Y420732D01*
X534139Y420727D01*
X534157Y420718D01*
X534293Y420688D01*
X534427Y420653D01*
X534455Y420651D01*
X534467Y420648D01*
X534488Y420649D01*
X534588Y420643D01*
X552136Y420643D01*
X552234Y420655D01*
X552333Y420658D01*
X552392Y420675D01*
X552452Y420683D01*
X552544Y420719D01*
X552639Y420747D01*
X552691Y420777D01*
X552747Y420800D01*
X552827Y420858D01*
X552913Y420908D01*
X552988Y420974D01*
X553005Y420986D01*
X553013Y420996D01*
X553034Y421014D01*
X554166Y422146D01*
X554226Y422225D01*
X554294Y422297D01*
X554323Y422350D01*
X554360Y422398D01*
X554400Y422489D01*
X554448Y422575D01*
X554463Y422634D01*
X554487Y422689D01*
X554502Y422787D01*
X554527Y422883D01*
X554533Y422983D01*
X554537Y423004D01*
X554535Y423016D01*
X554537Y423044D01*
X554537Y434445D01*
X554525Y434543D01*
X554522Y434642D01*
X554505Y434700D01*
X554497Y434760D01*
X554461Y434852D01*
X554433Y434947D01*
X554403Y435000D01*
X554380Y435056D01*
X554322Y435136D01*
X554272Y435221D01*
X554206Y435297D01*
X554194Y435313D01*
X554184Y435321D01*
X554166Y435342D01*
X552725Y436782D01*
X551807Y439000D01*
X551807Y441400D01*
X552725Y443618D01*
X554422Y445315D01*
X556640Y446233D01*
X558677Y446233D01*
X558775Y446246D01*
X558874Y446249D01*
X558932Y446265D01*
X558992Y446273D01*
X559084Y446310D01*
X559179Y446337D01*
X559232Y446368D01*
X559288Y446390D01*
X559368Y446448D01*
X559453Y446499D01*
X559529Y446565D01*
X559545Y446577D01*
X559553Y446586D01*
X559574Y446605D01*
X566866Y453896D01*
X566926Y453975D01*
X566994Y454047D01*
X567023Y454100D01*
X567060Y454148D01*
X567100Y454239D01*
X567148Y454325D01*
X567163Y454384D01*
X567187Y454439D01*
X567202Y454537D01*
X567227Y454633D01*
X567233Y454733D01*
X567237Y454754D01*
X567235Y454766D01*
X567237Y454794D01*
X567237Y457238D01*
X567234Y457267D01*
X567236Y457297D01*
X567214Y457424D01*
X567197Y457553D01*
X567187Y457581D01*
X567181Y457610D01*
X567128Y457728D01*
X567080Y457849D01*
X567063Y457873D01*
X567051Y457900D01*
X566970Y458001D01*
X566894Y458106D01*
X566871Y458125D01*
X566852Y458148D01*
X566749Y458226D01*
X566649Y458309D01*
X566622Y458322D01*
X566598Y458340D01*
X566572Y458353D01*
X564578Y460346D01*
X563507Y462931D01*
X563507Y465729D01*
X564578Y468314D01*
X566556Y470292D01*
X569141Y471363D01*
X571939Y471363D01*
X574524Y470292D01*
X576502Y468314D01*
X577573Y465729D01*
X577573Y462931D01*
X576502Y460346D01*
X574491Y458335D01*
X574463Y458317D01*
X574350Y458253D01*
X574329Y458232D01*
X574304Y458217D01*
X574215Y458122D01*
X574122Y458032D01*
X574106Y458007D01*
X574086Y457985D01*
X574023Y457871D01*
X573955Y457761D01*
X573947Y457732D01*
X573932Y457706D01*
X573900Y457581D01*
X573862Y457457D01*
X573860Y457427D01*
X573853Y457398D01*
X573843Y457238D01*
X573843Y451532D01*
X564245Y441934D01*
X564184Y441856D01*
X564116Y441784D01*
X564087Y441731D01*
X564050Y441683D01*
X564011Y441592D01*
X563963Y441505D01*
X563948Y441447D01*
X563924Y441391D01*
X563908Y441293D01*
X563883Y441197D01*
X563877Y441097D01*
X563874Y441077D01*
X563875Y441065D01*
X563873Y441037D01*
X563873Y439000D01*
X562955Y436782D01*
X561514Y435342D01*
X561454Y435264D01*
X561386Y435192D01*
X561357Y435139D01*
X561320Y435091D01*
X561280Y435000D01*
X561232Y434913D01*
X561217Y434855D01*
X561193Y434799D01*
X561178Y434701D01*
X561153Y434605D01*
X561147Y434505D01*
X561143Y434485D01*
X561145Y434473D01*
X561143Y434445D01*
X561143Y419782D01*
X559090Y417729D01*
X559005Y417620D01*
X558916Y417513D01*
X558908Y417494D01*
X558895Y417478D01*
X558840Y417350D01*
X558781Y417225D01*
X558777Y417205D01*
X558769Y417186D01*
X558747Y417048D01*
X558721Y416912D01*
X558722Y416892D01*
X558719Y416872D01*
X558732Y416733D01*
X558741Y416595D01*
X558747Y416576D01*
X558749Y416556D01*
X558796Y416424D01*
X558839Y416293D01*
X558850Y416275D01*
X558857Y416256D01*
X558935Y416141D01*
X559009Y416024D01*
X559024Y416010D01*
X559035Y415993D01*
X559139Y415901D01*
X559241Y415806D01*
X559258Y415796D01*
X559274Y415783D01*
X559398Y415719D01*
X559519Y415652D01*
X559539Y415647D01*
X559557Y415638D01*
X559693Y415608D01*
X559827Y415573D01*
X559855Y415571D01*
X559867Y415568D01*
X559888Y415569D01*
X559988Y415563D01*
X574996Y415563D01*
X575094Y415575D01*
X575193Y415578D01*
X575252Y415595D01*
X575312Y415603D01*
X575404Y415639D01*
X575499Y415667D01*
X575551Y415697D01*
X575607Y415720D01*
X575687Y415778D01*
X575773Y415828D01*
X575848Y415894D01*
X575865Y415906D01*
X575873Y415916D01*
X575894Y415934D01*
X579566Y419606D01*
X579626Y419685D01*
X579694Y419757D01*
X579723Y419810D01*
X579760Y419858D01*
X579800Y419949D01*
X579848Y420035D01*
X579863Y420094D01*
X579887Y420149D01*
X579902Y420247D01*
X579927Y420343D01*
X579933Y420443D01*
X579937Y420464D01*
X579935Y420476D01*
X579937Y420504D01*
X579937Y434445D01*
X579925Y434543D01*
X579922Y434642D01*
X579905Y434700D01*
X579897Y434760D01*
X579861Y434852D01*
X579833Y434947D01*
X579803Y435000D01*
X579780Y435056D01*
X579722Y435136D01*
X579672Y435221D01*
X579606Y435297D01*
X579594Y435313D01*
X579584Y435321D01*
X579566Y435342D01*
X578125Y436782D01*
X577207Y439000D01*
X577207Y441400D01*
X578125Y443618D01*
X579822Y445315D01*
X582040Y446233D01*
X584077Y446233D01*
X584175Y446246D01*
X584274Y446249D01*
X584332Y446265D01*
X584392Y446273D01*
X584484Y446310D01*
X584579Y446337D01*
X584632Y446368D01*
X584688Y446390D01*
X584768Y446448D01*
X584853Y446499D01*
X584929Y446565D01*
X584945Y446577D01*
X584953Y446586D01*
X584974Y446605D01*
X592266Y453896D01*
X592326Y453975D01*
X592394Y454047D01*
X592423Y454100D01*
X592460Y454148D01*
X592500Y454239D01*
X592548Y454325D01*
X592563Y454384D01*
X592587Y454439D01*
X592602Y454537D01*
X592627Y454633D01*
X592633Y454733D01*
X592637Y454754D01*
X592635Y454766D01*
X592637Y454794D01*
X592637Y457238D01*
X592634Y457267D01*
X592636Y457297D01*
X592614Y457424D01*
X592597Y457553D01*
X592587Y457581D01*
X592581Y457610D01*
X592528Y457728D01*
X592480Y457849D01*
X592463Y457873D01*
X592451Y457900D01*
X592370Y458001D01*
X592294Y458106D01*
X592271Y458125D01*
X592252Y458148D01*
X592149Y458226D01*
X592049Y458309D01*
X592022Y458322D01*
X591998Y458340D01*
X591972Y458353D01*
X589978Y460346D01*
X588907Y462931D01*
X588907Y465729D01*
X589978Y468314D01*
X591956Y470292D01*
X594541Y471363D01*
X597339Y471363D01*
X599924Y470292D01*
X601902Y468314D01*
X602973Y465729D01*
X602973Y462931D01*
X601902Y460346D01*
X599891Y458335D01*
X599863Y458317D01*
X599750Y458253D01*
X599729Y458232D01*
X599704Y458217D01*
X599615Y458122D01*
X599522Y458032D01*
X599506Y458007D01*
X599486Y457985D01*
X599423Y457871D01*
X599355Y457761D01*
X599347Y457732D01*
X599332Y457706D01*
X599300Y457581D01*
X599262Y457457D01*
X599260Y457427D01*
X599253Y457398D01*
X599243Y457238D01*
X599243Y451532D01*
X589645Y441934D01*
X589584Y441856D01*
X589516Y441784D01*
X589487Y441731D01*
X589450Y441683D01*
X589411Y441592D01*
X589363Y441505D01*
X589348Y441447D01*
X589324Y441391D01*
X589308Y441293D01*
X589283Y441197D01*
X589277Y441097D01*
X589274Y441077D01*
X589275Y441065D01*
X589273Y441037D01*
X589273Y439000D01*
X588355Y436782D01*
X586914Y435342D01*
X586854Y435264D01*
X586786Y435192D01*
X586757Y435139D01*
X586720Y435091D01*
X586680Y435000D01*
X586632Y434913D01*
X586617Y434855D01*
X586593Y434799D01*
X586578Y434701D01*
X586553Y434605D01*
X586547Y434505D01*
X586543Y434485D01*
X586545Y434473D01*
X586543Y434445D01*
X586543Y417242D01*
X578258Y408957D01*
X375584Y408957D01*
X375486Y408945D01*
X375387Y408942D01*
X375328Y408925D01*
X375268Y408917D01*
X375176Y408881D01*
X375081Y408853D01*
X375029Y408823D01*
X374973Y408800D01*
X374893Y408742D01*
X374807Y408692D01*
X374732Y408626D01*
X374715Y408614D01*
X374707Y408604D01*
X374686Y408586D01*
X373554Y407454D01*
X373494Y407375D01*
X373426Y407303D01*
X373397Y407250D01*
X373360Y407202D01*
X373320Y407111D01*
X373272Y407025D01*
X373257Y406966D01*
X373233Y406911D01*
X373218Y406813D01*
X373193Y406717D01*
X373187Y406617D01*
X373183Y406596D01*
X373185Y406584D01*
X373183Y406556D01*
X373183Y405315D01*
X373195Y405217D01*
X373198Y405118D01*
X373215Y405060D01*
X373223Y405000D01*
X373259Y404908D01*
X373287Y404813D01*
X373317Y404760D01*
X373340Y404704D01*
X373398Y404624D01*
X373448Y404539D01*
X373514Y404463D01*
X373526Y404447D01*
X373536Y404439D01*
X373554Y404418D01*
X374995Y402978D01*
X375913Y400760D01*
X375913Y398360D01*
X374995Y396142D01*
X373298Y394445D01*
X371080Y393527D01*
X368454Y393527D01*
X368405Y393521D01*
X368356Y393523D01*
X368248Y393501D01*
X368139Y393487D01*
X368093Y393469D01*
X368044Y393459D01*
X367945Y393410D01*
X367843Y393370D01*
X367803Y393341D01*
X367758Y393319D01*
X367675Y393248D01*
X367586Y393183D01*
X367554Y393145D01*
X367516Y393113D01*
X367453Y393023D01*
X367383Y392938D01*
X367362Y392893D01*
X367333Y392852D01*
X367294Y392750D01*
X367248Y392650D01*
X367238Y392602D01*
X367221Y392555D01*
X367208Y392446D01*
X367188Y392338D01*
X367191Y392289D01*
X367185Y392239D01*
X367201Y392130D01*
X367208Y392021D01*
X367223Y391973D01*
X367230Y391924D01*
X367282Y391772D01*
X368293Y389330D01*
X368293Y386930D01*
X367375Y384712D01*
X365678Y383015D01*
X363460Y382097D01*
X361423Y382097D01*
X361325Y382084D01*
X361226Y382081D01*
X361168Y382065D01*
X361108Y382057D01*
X361016Y382020D01*
X360921Y381993D01*
X360868Y381962D01*
X360812Y381940D01*
X360732Y381882D01*
X360647Y381831D01*
X360571Y381765D01*
X360555Y381753D01*
X360547Y381744D01*
X360526Y381725D01*
X357160Y378359D01*
X357075Y378250D01*
X356986Y378143D01*
X356978Y378124D01*
X356965Y378108D01*
X356910Y377980D01*
X356851Y377855D01*
X356847Y377835D01*
X356839Y377816D01*
X356817Y377678D01*
X356791Y377542D01*
X356792Y377522D01*
X356789Y377502D01*
X356802Y377363D01*
X356811Y377225D01*
X356817Y377206D01*
X356819Y377186D01*
X356866Y377054D01*
X356909Y376923D01*
X356920Y376905D01*
X356927Y376886D01*
X357005Y376771D01*
X357079Y376654D01*
X357094Y376640D01*
X357105Y376623D01*
X357209Y376531D01*
X357311Y376436D01*
X357328Y376426D01*
X357344Y376413D01*
X357468Y376349D01*
X357589Y376282D01*
X357609Y376277D01*
X357627Y376268D01*
X357763Y376238D01*
X357897Y376203D01*
X357925Y376201D01*
X357937Y376198D01*
X357958Y376199D01*
X358058Y376193D01*
X378095Y376193D01*
X378193Y376205D01*
X378292Y376208D01*
X378350Y376225D01*
X378410Y376233D01*
X378502Y376269D01*
X378597Y376297D01*
X378650Y376327D01*
X378706Y376350D01*
X378786Y376408D01*
X378871Y376458D01*
X378947Y376524D01*
X378963Y376536D01*
X378971Y376546D01*
X378992Y376564D01*
X380432Y378005D01*
X382650Y378923D01*
X383827Y378923D01*
X383925Y378936D01*
X384024Y378939D01*
X384082Y378955D01*
X384142Y378963D01*
X384234Y379000D01*
X384329Y379027D01*
X384382Y379058D01*
X384438Y379080D01*
X384518Y379138D01*
X384603Y379189D01*
X384679Y379255D01*
X384695Y379267D01*
X384703Y379276D01*
X384724Y379295D01*
X408292Y402863D01*
X411028Y402863D01*
X412963Y400928D01*
X412963Y398192D01*
X390183Y375413D01*
X390165Y375389D01*
X390143Y375370D01*
X390068Y375264D01*
X389989Y375161D01*
X389977Y375134D01*
X389960Y375110D01*
X389914Y374989D01*
X389862Y374870D01*
X389858Y374840D01*
X389847Y374813D01*
X389833Y374684D01*
X389812Y374555D01*
X389815Y374526D01*
X389812Y374497D01*
X389830Y374368D01*
X389842Y374239D01*
X389852Y374211D01*
X389856Y374182D01*
X389883Y374103D01*
X389883Y371690D01*
X388965Y369472D01*
X387268Y367775D01*
X385050Y366857D01*
X382650Y366857D01*
X380432Y367775D01*
X378992Y369216D01*
X378914Y369276D01*
X378842Y369344D01*
X378789Y369373D01*
X378741Y369410D01*
X378650Y369450D01*
X378563Y369498D01*
X378505Y369513D01*
X378449Y369537D01*
X378351Y369552D01*
X378255Y369577D01*
X378155Y369583D01*
X378135Y369587D01*
X378123Y369585D01*
X378095Y369587D01*
X235162Y369587D01*
X231724Y373026D01*
X229299Y375450D01*
X229190Y375535D01*
X229083Y375624D01*
X229064Y375632D01*
X229048Y375645D01*
X228920Y375700D01*
X228795Y375759D01*
X228775Y375763D01*
X228756Y375771D01*
X228618Y375793D01*
X228482Y375819D01*
X228462Y375818D01*
X228442Y375821D01*
X228303Y375808D01*
X228165Y375799D01*
X228146Y375793D01*
X228126Y375791D01*
X227994Y375744D01*
X227863Y375701D01*
X227845Y375690D01*
X227826Y375683D01*
X227711Y375605D01*
X227594Y375531D01*
X227580Y375516D01*
X227563Y375505D01*
X227471Y375401D01*
X227376Y375299D01*
X227366Y375282D01*
X227353Y375266D01*
X227289Y375142D01*
X227222Y375021D01*
X227217Y375001D01*
X227208Y374983D01*
X227178Y374847D01*
X227143Y374713D01*
X227141Y374685D01*
X227138Y374673D01*
X227139Y374652D01*
X227133Y374552D01*
X227133Y372244D01*
X227145Y372146D01*
X227148Y372047D01*
X227165Y371988D01*
X227173Y371928D01*
X227209Y371836D01*
X227237Y371741D01*
X227267Y371689D01*
X227290Y371633D01*
X227348Y371553D01*
X227398Y371467D01*
X227464Y371392D01*
X227476Y371375D01*
X227486Y371367D01*
X227504Y371346D01*
X234986Y363864D01*
X235065Y363804D01*
X235137Y363736D01*
X235190Y363707D01*
X235238Y363670D01*
X235329Y363630D01*
X235415Y363582D01*
X235474Y363567D01*
X235529Y363543D01*
X235627Y363528D01*
X235723Y363503D01*
X235823Y363497D01*
X235844Y363493D01*
X235856Y363495D01*
X235884Y363493D01*
X367935Y363493D01*
X368033Y363505D01*
X368132Y363508D01*
X368190Y363525D01*
X368250Y363533D01*
X368342Y363569D01*
X368437Y363597D01*
X368490Y363627D01*
X368546Y363650D01*
X368626Y363708D01*
X368711Y363758D01*
X368787Y363824D01*
X368803Y363836D01*
X368811Y363846D01*
X368832Y363864D01*
X370272Y365305D01*
X372490Y366223D01*
X374890Y366223D01*
X377108Y365305D01*
X378805Y363608D01*
X379054Y363006D01*
X379068Y362981D01*
X379078Y362953D01*
X379147Y362843D01*
X379211Y362730D01*
X379232Y362709D01*
X379248Y362684D01*
X379342Y362595D01*
X379433Y362502D01*
X379458Y362486D01*
X379479Y362466D01*
X379593Y362403D01*
X379704Y362335D01*
X379732Y362327D01*
X379758Y362312D01*
X379884Y362280D01*
X380008Y362242D01*
X380037Y362240D01*
X380066Y362233D01*
X380226Y362223D01*
X385766Y362223D01*
X385864Y362235D01*
X385963Y362238D01*
X386022Y362255D01*
X386082Y362263D01*
X386174Y362299D01*
X386269Y362327D01*
X386321Y362357D01*
X386377Y362380D01*
X386457Y362438D01*
X386543Y362488D01*
X386618Y362554D01*
X386635Y362566D01*
X386643Y362576D01*
X386664Y362594D01*
X401532Y377463D01*
X600091Y377463D01*
X600229Y377480D01*
X600367Y377493D01*
X600386Y377500D01*
X600406Y377503D01*
X600535Y377554D01*
X600666Y377601D01*
X600683Y377612D01*
X600702Y377620D01*
X600814Y377701D01*
X600930Y377779D01*
X600943Y377795D01*
X600959Y377806D01*
X601048Y377914D01*
X601140Y378018D01*
X601149Y378036D01*
X601162Y378051D01*
X601221Y378177D01*
X601285Y378301D01*
X601289Y378321D01*
X601298Y378339D01*
X601324Y378476D01*
X601354Y378611D01*
X601354Y378632D01*
X601357Y378651D01*
X601349Y378790D01*
X601345Y378929D01*
X601339Y378949D01*
X601338Y378969D01*
X601295Y379101D01*
X601256Y379235D01*
X601246Y379252D01*
X601240Y379271D01*
X601165Y379389D01*
X601095Y379509D01*
X601076Y379530D01*
X601070Y379540D01*
X601055Y379554D01*
X600988Y379629D01*
X599715Y380902D01*
X598797Y383120D01*
X598797Y385520D01*
X599715Y387738D01*
X601412Y389435D01*
X603630Y390353D01*
X606030Y390353D01*
X608248Y389435D01*
X609945Y387738D01*
X610863Y385520D01*
X610863Y383120D01*
X609945Y380902D01*
X608504Y379462D01*
X608444Y379384D01*
X608376Y379312D01*
X608347Y379259D01*
X608310Y379211D01*
X608270Y379120D01*
X608222Y379033D01*
X608207Y378975D01*
X608183Y378919D01*
X608168Y378821D01*
X608143Y378725D01*
X608137Y378625D01*
X608133Y378605D01*
X608135Y378593D01*
X608133Y378565D01*
X608133Y374062D01*
X607235Y373164D01*
X604928Y370857D01*
X404794Y370857D01*
X404696Y370845D01*
X404597Y370842D01*
X404538Y370825D01*
X404478Y370817D01*
X404386Y370781D01*
X404291Y370753D01*
X404239Y370723D01*
X404183Y370700D01*
X404103Y370642D01*
X404017Y370592D01*
X403942Y370526D01*
X403925Y370514D01*
X403917Y370504D01*
X403896Y370486D01*
X389028Y355617D01*
X378175Y355617D01*
X378077Y355605D01*
X377978Y355602D01*
X377920Y355585D01*
X377860Y355577D01*
X377768Y355541D01*
X377673Y355513D01*
X377620Y355483D01*
X377564Y355460D01*
X377484Y355402D01*
X377399Y355352D01*
X377323Y355286D01*
X377307Y355274D01*
X377299Y355264D01*
X377278Y355246D01*
X377108Y355075D01*
X375730Y354505D01*
X375669Y354470D01*
X375604Y354444D01*
X375532Y354392D01*
X375454Y354347D01*
X375403Y354299D01*
X375347Y354258D01*
X375290Y354188D01*
X375225Y354126D01*
X375189Y354066D01*
X375144Y354013D01*
X375106Y353931D01*
X375059Y353855D01*
X375038Y353788D01*
X375009Y353725D01*
X374992Y353637D01*
X374965Y353551D01*
X374962Y353481D01*
X374949Y353412D01*
X374954Y353323D01*
X374950Y353233D01*
X374964Y353165D01*
X374969Y353095D01*
X374996Y353010D01*
X375014Y352922D01*
X375045Y352859D01*
X375067Y352793D01*
X375115Y352717D01*
X375154Y352636D01*
X375199Y352583D01*
X375237Y352524D01*
X375302Y352462D01*
X375361Y352394D01*
X375418Y352354D01*
X375468Y352306D01*
X375547Y352263D01*
X375621Y352211D01*
X375686Y352186D01*
X375747Y352152D01*
X375834Y352130D01*
X375918Y352098D01*
X375987Y352090D01*
X376055Y352073D01*
X376216Y352063D01*
X612791Y352063D01*
X612929Y352080D01*
X613067Y352093D01*
X613086Y352100D01*
X613106Y352103D01*
X613235Y352154D01*
X613366Y352201D01*
X613383Y352212D01*
X613402Y352220D01*
X613514Y352301D01*
X613630Y352379D01*
X613643Y352395D01*
X613659Y352406D01*
X613748Y352514D01*
X613840Y352618D01*
X613849Y352636D01*
X613862Y352651D01*
X613921Y352777D01*
X613985Y352901D01*
X613989Y352921D01*
X613998Y352939D01*
X614024Y353076D01*
X614054Y353211D01*
X614054Y353232D01*
X614057Y353251D01*
X614049Y353390D01*
X614045Y353529D01*
X614039Y353549D01*
X614038Y353569D01*
X613995Y353701D01*
X613956Y353835D01*
X613946Y353852D01*
X613940Y353871D01*
X613865Y353989D01*
X613795Y354109D01*
X613776Y354130D01*
X613770Y354140D01*
X613755Y354154D01*
X613688Y354229D01*
X612415Y355502D01*
X611497Y357720D01*
X611497Y360120D01*
X612415Y362338D01*
X614112Y364035D01*
X616330Y364953D01*
X618730Y364953D01*
X620948Y364035D01*
X622645Y362338D01*
X623563Y360120D01*
X623563Y357720D01*
X622645Y355502D01*
X621204Y354062D01*
X621144Y353984D01*
X621076Y353912D01*
X621047Y353859D01*
X621010Y353811D01*
X620970Y353720D01*
X620922Y353633D01*
X620907Y353575D01*
X620883Y353519D01*
X620868Y353421D01*
X620843Y353325D01*
X620837Y353225D01*
X620833Y353205D01*
X620835Y353193D01*
X620833Y353165D01*
X620833Y347392D01*
X618898Y345457D01*
X370555Y345457D01*
X370457Y345445D01*
X370358Y345442D01*
X370300Y345425D01*
X370240Y345417D01*
X370148Y345381D01*
X370053Y345353D01*
X370000Y345323D01*
X369944Y345300D01*
X369864Y345242D01*
X369779Y345192D01*
X369703Y345126D01*
X369687Y345114D01*
X369679Y345104D01*
X369658Y345086D01*
X368218Y343645D01*
X366000Y342727D01*
X363600Y342727D01*
X361382Y343645D01*
X359685Y345342D01*
X358767Y347560D01*
X358767Y349960D01*
X359685Y352178D01*
X361382Y353875D01*
X362760Y354445D01*
X362821Y354480D01*
X362886Y354506D01*
X362958Y354558D01*
X363036Y354603D01*
X363087Y354651D01*
X363143Y354692D01*
X363200Y354762D01*
X363265Y354824D01*
X363301Y354884D01*
X363346Y354937D01*
X363384Y355019D01*
X363431Y355095D01*
X363452Y355162D01*
X363481Y355225D01*
X363498Y355313D01*
X363525Y355399D01*
X363528Y355469D01*
X363541Y355538D01*
X363536Y355627D01*
X363540Y355717D01*
X363526Y355785D01*
X363521Y355855D01*
X363494Y355940D01*
X363476Y356028D01*
X363445Y356091D01*
X363423Y356157D01*
X363375Y356233D01*
X363336Y356314D01*
X363291Y356367D01*
X363253Y356426D01*
X363188Y356488D01*
X363129Y356556D01*
X363072Y356596D01*
X363022Y356644D01*
X362943Y356687D01*
X362869Y356739D01*
X362804Y356764D01*
X362743Y356798D01*
X362656Y356820D01*
X362572Y356852D01*
X362503Y356860D01*
X362435Y356877D01*
X362274Y356887D01*
X232622Y356887D01*
X220527Y368982D01*
X220527Y400155D01*
X220515Y400253D01*
X220512Y400352D01*
X220495Y400410D01*
X220487Y400470D01*
X220451Y400562D01*
X220423Y400657D01*
X220393Y400710D01*
X220370Y400766D01*
X220312Y400846D01*
X220262Y400931D01*
X220196Y401007D01*
X220184Y401023D01*
X220174Y401031D01*
X220156Y401052D01*
X218715Y402492D01*
X217797Y404710D01*
X217797Y407110D01*
X218715Y409328D01*
X220412Y411025D01*
X222630Y411943D01*
X225030Y411943D01*
X225662Y411681D01*
X225796Y411645D01*
X225929Y411604D01*
X225949Y411603D01*
X225969Y411597D01*
X226108Y411595D01*
X226247Y411589D01*
X226267Y411593D01*
X226287Y411592D01*
X226423Y411625D01*
X226558Y411653D01*
X226577Y411662D01*
X226596Y411667D01*
X226719Y411732D01*
X226844Y411793D01*
X226859Y411806D01*
X226877Y411815D01*
X226980Y411909D01*
X227086Y411999D01*
X227098Y412016D01*
X227113Y412029D01*
X227189Y412146D01*
X227269Y412259D01*
X227276Y412278D01*
X227287Y412295D01*
X227333Y412426D01*
X227382Y412556D01*
X227384Y412577D01*
X227391Y412596D01*
X227402Y412734D01*
X227417Y412873D01*
X227414Y412893D01*
X227416Y412913D01*
X227392Y413050D01*
X227373Y413187D01*
X227364Y413214D01*
X227361Y413226D01*
X227353Y413245D01*
X227321Y413340D01*
X226687Y414870D01*
X226687Y417270D01*
X227605Y419488D01*
X229302Y421185D01*
X231520Y422103D01*
X233920Y422103D01*
X236138Y421185D01*
X237835Y419488D01*
X238405Y418110D01*
X238440Y418049D01*
X238466Y417984D01*
X238518Y417912D01*
X238563Y417834D01*
X238611Y417783D01*
X238652Y417727D01*
X238722Y417670D01*
X238784Y417605D01*
X238844Y417569D01*
X238897Y417524D01*
X238979Y417486D01*
X239055Y417439D01*
X239122Y417418D01*
X239185Y417389D01*
X239273Y417372D01*
X239359Y417345D01*
X239429Y417342D01*
X239498Y417329D01*
X239587Y417334D01*
X239677Y417330D01*
X239745Y417344D01*
X239815Y417349D01*
X239900Y417376D01*
X239988Y417394D01*
X240051Y417425D01*
X240117Y417447D01*
X240193Y417495D01*
X240274Y417534D01*
X240327Y417579D01*
X240386Y417617D01*
X240448Y417682D01*
X240516Y417741D01*
X240556Y417798D01*
X240604Y417848D01*
X240647Y417927D01*
X240699Y418001D01*
X240724Y418066D01*
X240758Y418127D01*
X240780Y418214D01*
X240812Y418298D01*
X240820Y418367D01*
X240837Y418435D01*
X240847Y418596D01*
X240847Y461028D01*
X240832Y461146D01*
X240825Y461265D01*
X240812Y461303D01*
X240807Y461344D01*
X240764Y461454D01*
X240727Y461567D01*
X240705Y461602D01*
X240690Y461639D01*
X240621Y461735D01*
X240557Y461836D01*
X240527Y461864D01*
X240504Y461897D01*
X240412Y461973D01*
X240325Y462054D01*
X240290Y462074D01*
X240259Y462099D01*
X240151Y462150D01*
X240047Y462208D01*
X240007Y462218D01*
X239971Y462235D01*
X239854Y462257D01*
X239739Y462287D01*
X239679Y462291D01*
X239659Y462295D01*
X239638Y462293D01*
X239578Y462297D01*
X197784Y462297D01*
X197686Y462285D01*
X197587Y462282D01*
X197528Y462265D01*
X197468Y462257D01*
X197376Y462221D01*
X197281Y462193D01*
X197229Y462163D01*
X197173Y462140D01*
X197093Y462082D01*
X197007Y462032D01*
X196932Y461966D01*
X196915Y461954D01*
X196907Y461944D01*
X196886Y461926D01*
X193330Y458369D01*
X193245Y458260D01*
X193156Y458153D01*
X193148Y458134D01*
X193135Y458118D01*
X193080Y457990D01*
X193021Y457865D01*
X193017Y457845D01*
X193009Y457826D01*
X192987Y457688D01*
X192961Y457552D01*
X192962Y457532D01*
X192959Y457512D01*
X192972Y457373D01*
X192981Y457235D01*
X192987Y457216D01*
X192989Y457196D01*
X193036Y457064D01*
X193079Y456933D01*
X193090Y456915D01*
X193097Y456896D01*
X193175Y456781D01*
X193249Y456664D01*
X193264Y456650D01*
X193275Y456633D01*
X193379Y456541D01*
X193481Y456446D01*
X193498Y456436D01*
X193514Y456423D01*
X193638Y456359D01*
X193759Y456292D01*
X193779Y456287D01*
X193797Y456278D01*
X193933Y456248D01*
X194067Y456213D01*
X194095Y456211D01*
X194107Y456208D01*
X194128Y456209D01*
X194228Y456203D01*
X198063Y456203D01*
X202077Y454540D01*
X205150Y451467D01*
X206813Y447453D01*
X206813Y355080D01*
X206825Y354982D01*
X206828Y354883D01*
X206845Y354825D01*
X206853Y354765D01*
X206889Y354672D01*
X206917Y354577D01*
X206947Y354525D01*
X206970Y354469D01*
X207028Y354389D01*
X207078Y354303D01*
X207144Y354228D01*
X207156Y354212D01*
X207166Y354204D01*
X207184Y354183D01*
X240710Y320657D01*
X242373Y316643D01*
X242373Y270387D01*
X240710Y266373D01*
X237879Y263542D01*
X237861Y263518D01*
X237838Y263499D01*
X237764Y263393D01*
X237684Y263290D01*
X237672Y263263D01*
X237655Y263239D01*
X237609Y263118D01*
X237557Y262999D01*
X237553Y262969D01*
X237542Y262942D01*
X237528Y262813D01*
X237508Y262684D01*
X237510Y262655D01*
X237507Y262626D01*
X237525Y262497D01*
X237537Y262368D01*
X237547Y262340D01*
X237552Y262311D01*
X237604Y262158D01*
X238015Y261166D01*
X238015Y258554D01*
X237015Y256141D01*
X235169Y254295D01*
X232756Y253295D01*
X230144Y253295D01*
G37*
%LPD*%
%LPC*%
G36*
X447505Y27459D02*
X447505Y27459D01*
X442896Y29368D01*
X439368Y32896D01*
X437459Y37505D01*
X437459Y192495D01*
X439368Y197104D01*
X442896Y200632D01*
X447505Y202541D01*
X452495Y202541D01*
X457104Y200632D01*
X460632Y197104D01*
X462541Y192495D01*
X462541Y37505D01*
X460632Y32896D01*
X457104Y29368D01*
X452495Y27459D01*
X447505Y27459D01*
G37*
%LPD*%
%LPC*%
G36*
X33276Y15380D02*
X33276Y15380D01*
X33258Y15380D01*
X33143Y15387D01*
X31099Y15387D01*
X30551Y15614D01*
X30452Y15641D01*
X30357Y15677D01*
X30265Y15692D01*
X30244Y15698D01*
X30231Y15698D01*
X30198Y15704D01*
X28779Y15853D01*
X25815Y17564D01*
X25813Y17565D01*
X25810Y17567D01*
X25666Y17638D01*
X23890Y18373D01*
X23293Y18970D01*
X23226Y19022D01*
X23165Y19083D01*
X23051Y19158D01*
X23042Y19165D01*
X23038Y19167D01*
X23031Y19172D01*
X21529Y20039D01*
X19739Y22503D01*
X19726Y22517D01*
X19716Y22533D01*
X19609Y22654D01*
X18373Y23890D01*
X17957Y24896D01*
X17922Y24956D01*
X17897Y25020D01*
X17811Y25156D01*
X16608Y26811D01*
X16047Y29449D01*
X16036Y29483D01*
X16031Y29519D01*
X15979Y29671D01*
X15387Y31099D01*
X15387Y32422D01*
X15381Y32474D01*
X15383Y32526D01*
X15360Y32686D01*
X14868Y35000D01*
X15360Y37314D01*
X15364Y37367D01*
X15377Y37417D01*
X15387Y37578D01*
X15387Y38901D01*
X15979Y40329D01*
X15988Y40363D01*
X16004Y40395D01*
X16047Y40551D01*
X16608Y43189D01*
X17811Y44844D01*
X17844Y44905D01*
X17886Y44960D01*
X17957Y45104D01*
X18373Y46110D01*
X19609Y47346D01*
X19621Y47361D01*
X19636Y47373D01*
X19739Y47497D01*
X21529Y49961D01*
X23031Y50828D01*
X23099Y50880D01*
X23173Y50924D01*
X23275Y51014D01*
X23284Y51021D01*
X23287Y51024D01*
X23293Y51030D01*
X23890Y51627D01*
X25666Y52362D01*
X25668Y52364D01*
X25671Y52364D01*
X25815Y52436D01*
X28779Y54147D01*
X30198Y54296D01*
X30298Y54320D01*
X30399Y54334D01*
X30487Y54364D01*
X30508Y54369D01*
X30520Y54375D01*
X30551Y54386D01*
X31099Y54613D01*
X33143Y54613D01*
X33160Y54615D01*
X33276Y54620D01*
X37104Y55022D01*
X38173Y54675D01*
X38290Y54653D01*
X38405Y54623D01*
X38465Y54619D01*
X38485Y54615D01*
X38506Y54617D01*
X38565Y54613D01*
X38901Y54613D01*
X40809Y53822D01*
X40830Y53817D01*
X40903Y53788D01*
X45066Y52435D01*
X45678Y51885D01*
X45789Y51807D01*
X45897Y51726D01*
X45927Y51711D01*
X45939Y51703D01*
X45959Y51696D01*
X46041Y51655D01*
X46110Y51627D01*
X47405Y50332D01*
X47419Y50321D01*
X47453Y50286D01*
X51287Y46834D01*
X51500Y46356D01*
X51579Y46226D01*
X51850Y45571D01*
X51855Y45562D01*
X51863Y45541D01*
X54692Y39186D01*
X54692Y30814D01*
X51863Y24459D01*
X51860Y24449D01*
X51850Y24429D01*
X51594Y23811D01*
X51575Y23787D01*
X51570Y23779D01*
X51568Y23775D01*
X51563Y23764D01*
X51500Y23644D01*
X51287Y23166D01*
X47453Y19714D01*
X47441Y19700D01*
X47405Y19668D01*
X46110Y18373D01*
X46041Y18345D01*
X45924Y18278D01*
X45804Y18215D01*
X45777Y18194D01*
X45765Y18187D01*
X45750Y18172D01*
X45678Y18115D01*
X45066Y17565D01*
X40902Y16212D01*
X40883Y16203D01*
X40809Y16177D01*
X38901Y15387D01*
X38565Y15387D01*
X38447Y15372D01*
X38329Y15365D01*
X38270Y15350D01*
X38250Y15347D01*
X38231Y15340D01*
X38173Y15325D01*
X37104Y14978D01*
X33276Y15380D01*
G37*
%LPD*%
%LPC*%
G36*
X613276Y505380D02*
X613276Y505380D01*
X613258Y505380D01*
X613143Y505387D01*
X611099Y505387D01*
X610551Y505614D01*
X610452Y505641D01*
X610357Y505677D01*
X610265Y505692D01*
X610244Y505698D01*
X610231Y505698D01*
X610198Y505704D01*
X608779Y505853D01*
X605815Y507564D01*
X605813Y507565D01*
X605810Y507567D01*
X605666Y507638D01*
X603890Y508373D01*
X603293Y508970D01*
X603226Y509022D01*
X603165Y509083D01*
X603051Y509158D01*
X603042Y509165D01*
X603038Y509167D01*
X603031Y509172D01*
X601529Y510039D01*
X599739Y512503D01*
X599726Y512517D01*
X599716Y512533D01*
X599609Y512654D01*
X598373Y513890D01*
X597957Y514896D01*
X597922Y514956D01*
X597897Y515020D01*
X597811Y515156D01*
X596608Y516811D01*
X596047Y519449D01*
X596036Y519483D01*
X596031Y519519D01*
X595979Y519671D01*
X595387Y521099D01*
X595387Y522422D01*
X595381Y522474D01*
X595383Y522526D01*
X595360Y522686D01*
X594868Y525000D01*
X595360Y527314D01*
X595364Y527367D01*
X595377Y527417D01*
X595387Y527578D01*
X595387Y528901D01*
X595979Y530329D01*
X595988Y530363D01*
X596004Y530395D01*
X596047Y530551D01*
X596608Y533189D01*
X597811Y534844D01*
X597844Y534905D01*
X597886Y534960D01*
X597957Y535104D01*
X598373Y536110D01*
X599609Y537346D01*
X599621Y537361D01*
X599636Y537373D01*
X599739Y537497D01*
X601529Y539961D01*
X603031Y540828D01*
X603099Y540880D01*
X603173Y540924D01*
X603275Y541014D01*
X603284Y541021D01*
X603287Y541024D01*
X603293Y541030D01*
X603890Y541627D01*
X605666Y542362D01*
X605668Y542364D01*
X605671Y542364D01*
X605815Y542436D01*
X608779Y544147D01*
X610198Y544296D01*
X610298Y544320D01*
X610399Y544334D01*
X610487Y544364D01*
X610508Y544369D01*
X610520Y544375D01*
X610551Y544386D01*
X611099Y544613D01*
X613143Y544613D01*
X613160Y544615D01*
X613276Y544620D01*
X617104Y545022D01*
X618173Y544675D01*
X618290Y544653D01*
X618405Y544623D01*
X618465Y544619D01*
X618485Y544615D01*
X618506Y544617D01*
X618565Y544613D01*
X618901Y544613D01*
X620809Y543822D01*
X620830Y543817D01*
X620903Y543788D01*
X625066Y542435D01*
X625678Y541885D01*
X625789Y541807D01*
X625897Y541726D01*
X625927Y541711D01*
X625939Y541703D01*
X625959Y541696D01*
X626041Y541655D01*
X626110Y541627D01*
X627405Y540332D01*
X627419Y540321D01*
X627453Y540286D01*
X631287Y536834D01*
X631500Y536356D01*
X631579Y536226D01*
X631850Y535571D01*
X631855Y535562D01*
X631863Y535541D01*
X634692Y529186D01*
X634692Y520814D01*
X631863Y514459D01*
X631860Y514449D01*
X631850Y514429D01*
X631594Y513811D01*
X631575Y513787D01*
X631570Y513779D01*
X631568Y513775D01*
X631563Y513764D01*
X631500Y513644D01*
X631287Y513166D01*
X627453Y509714D01*
X627441Y509700D01*
X627405Y509668D01*
X626110Y508373D01*
X626041Y508345D01*
X625924Y508278D01*
X625804Y508215D01*
X625777Y508194D01*
X625765Y508187D01*
X625750Y508172D01*
X625678Y508115D01*
X625066Y507565D01*
X620902Y506212D01*
X620883Y506203D01*
X620809Y506177D01*
X618901Y505387D01*
X618565Y505387D01*
X618447Y505372D01*
X618329Y505365D01*
X618270Y505350D01*
X618250Y505347D01*
X618231Y505340D01*
X618173Y505325D01*
X617104Y504978D01*
X613276Y505380D01*
G37*
%LPD*%
%LPC*%
G36*
X33276Y505380D02*
X33276Y505380D01*
X33258Y505380D01*
X33143Y505387D01*
X31099Y505387D01*
X30551Y505614D01*
X30452Y505641D01*
X30357Y505677D01*
X30265Y505692D01*
X30244Y505698D01*
X30231Y505698D01*
X30198Y505704D01*
X28779Y505853D01*
X25815Y507564D01*
X25813Y507565D01*
X25810Y507567D01*
X25666Y507638D01*
X23890Y508373D01*
X23293Y508970D01*
X23226Y509022D01*
X23165Y509083D01*
X23051Y509158D01*
X23042Y509165D01*
X23038Y509167D01*
X23031Y509172D01*
X21529Y510039D01*
X19739Y512503D01*
X19726Y512517D01*
X19716Y512533D01*
X19609Y512654D01*
X18373Y513890D01*
X17957Y514896D01*
X17922Y514956D01*
X17897Y515020D01*
X17811Y515156D01*
X16608Y516811D01*
X16047Y519449D01*
X16036Y519483D01*
X16031Y519519D01*
X15979Y519671D01*
X15387Y521099D01*
X15387Y522422D01*
X15381Y522474D01*
X15383Y522526D01*
X15360Y522686D01*
X14868Y525000D01*
X15360Y527314D01*
X15364Y527367D01*
X15377Y527417D01*
X15387Y527578D01*
X15387Y528901D01*
X15979Y530329D01*
X15988Y530363D01*
X16004Y530395D01*
X16047Y530551D01*
X16608Y533189D01*
X17811Y534844D01*
X17844Y534905D01*
X17886Y534960D01*
X17957Y535104D01*
X18373Y536110D01*
X19609Y537346D01*
X19621Y537361D01*
X19636Y537373D01*
X19739Y537497D01*
X21529Y539961D01*
X23031Y540828D01*
X23099Y540880D01*
X23173Y540924D01*
X23275Y541014D01*
X23284Y541021D01*
X23287Y541024D01*
X23293Y541030D01*
X23890Y541627D01*
X25666Y542362D01*
X25668Y542364D01*
X25671Y542364D01*
X25815Y542436D01*
X28779Y544147D01*
X30198Y544296D01*
X30298Y544320D01*
X30399Y544334D01*
X30487Y544364D01*
X30508Y544369D01*
X30520Y544375D01*
X30551Y544386D01*
X31099Y544613D01*
X33143Y544613D01*
X33160Y544615D01*
X33276Y544620D01*
X37104Y545022D01*
X38173Y544675D01*
X38290Y544653D01*
X38405Y544623D01*
X38465Y544619D01*
X38485Y544615D01*
X38506Y544617D01*
X38565Y544613D01*
X38901Y544613D01*
X40809Y543822D01*
X40830Y543817D01*
X40903Y543788D01*
X45066Y542435D01*
X45678Y541885D01*
X45789Y541807D01*
X45897Y541726D01*
X45927Y541711D01*
X45939Y541703D01*
X45959Y541696D01*
X46041Y541655D01*
X46110Y541627D01*
X47405Y540332D01*
X47419Y540321D01*
X47453Y540286D01*
X51287Y536834D01*
X51500Y536356D01*
X51579Y536226D01*
X51850Y535571D01*
X51855Y535562D01*
X51863Y535541D01*
X54692Y529186D01*
X54692Y520814D01*
X51863Y514459D01*
X51860Y514449D01*
X51850Y514429D01*
X51594Y513811D01*
X51575Y513787D01*
X51570Y513779D01*
X51568Y513775D01*
X51563Y513764D01*
X51500Y513644D01*
X51287Y513166D01*
X47453Y509714D01*
X47441Y509700D01*
X47405Y509668D01*
X46110Y508373D01*
X46041Y508345D01*
X45924Y508278D01*
X45804Y508215D01*
X45777Y508194D01*
X45765Y508187D01*
X45750Y508172D01*
X45678Y508115D01*
X45066Y507565D01*
X40902Y506212D01*
X40883Y506203D01*
X40809Y506177D01*
X38901Y505387D01*
X38565Y505387D01*
X38447Y505372D01*
X38329Y505365D01*
X38270Y505350D01*
X38250Y505347D01*
X38231Y505340D01*
X38173Y505325D01*
X37104Y504978D01*
X33276Y505380D01*
G37*
%LPD*%
%LPC*%
G36*
X132800Y397967D02*
X132800Y397967D01*
X130582Y398885D01*
X128885Y400582D01*
X127967Y402800D01*
X127967Y405200D01*
X128885Y407418D01*
X130582Y409115D01*
X132800Y410033D01*
X135196Y410033D01*
X135294Y410046D01*
X135393Y410049D01*
X135451Y410065D01*
X135511Y410073D01*
X135604Y410110D01*
X135699Y410137D01*
X135751Y410168D01*
X135807Y410190D01*
X135887Y410248D01*
X135973Y410299D01*
X136048Y410365D01*
X136064Y410377D01*
X136072Y410386D01*
X136093Y410405D01*
X137580Y411891D01*
X137640Y411969D01*
X137708Y412041D01*
X137737Y412094D01*
X137774Y412142D01*
X137814Y412233D01*
X137862Y412320D01*
X137877Y412379D01*
X137901Y412434D01*
X137916Y412532D01*
X137941Y412628D01*
X137947Y412728D01*
X137951Y412748D01*
X137949Y412761D01*
X137951Y412789D01*
X137951Y465991D01*
X137939Y466089D01*
X137936Y466188D01*
X137919Y466246D01*
X137911Y466306D01*
X137875Y466398D01*
X137847Y466493D01*
X137817Y466546D01*
X137794Y466602D01*
X137736Y466682D01*
X137686Y466767D01*
X137620Y466843D01*
X137608Y466859D01*
X137598Y466867D01*
X137580Y466888D01*
X135885Y468582D01*
X134967Y470800D01*
X134967Y473200D01*
X135885Y475418D01*
X137582Y477115D01*
X139800Y478033D01*
X142200Y478033D01*
X144418Y477115D01*
X146115Y475418D01*
X147033Y473200D01*
X147033Y470800D01*
X146115Y468582D01*
X144420Y466888D01*
X144360Y466810D01*
X144292Y466738D01*
X144263Y466685D01*
X144226Y466637D01*
X144186Y466546D01*
X144138Y466459D01*
X144123Y466401D01*
X144099Y466345D01*
X144084Y466247D01*
X144059Y466151D01*
X144053Y466051D01*
X144049Y466031D01*
X144051Y466019D01*
X144049Y465991D01*
X144049Y409737D01*
X140405Y406093D01*
X140344Y406015D01*
X140276Y405943D01*
X140247Y405890D01*
X140210Y405842D01*
X140171Y405751D01*
X140123Y405665D01*
X140108Y405606D01*
X140084Y405550D01*
X140068Y405452D01*
X140043Y405357D01*
X140037Y405257D01*
X140034Y405236D01*
X140035Y405224D01*
X140033Y405196D01*
X140033Y402800D01*
X139115Y400582D01*
X137418Y398885D01*
X135200Y397967D01*
X132800Y397967D01*
G37*
%LPD*%
%LPC*%
G36*
X74526Y287037D02*
X74526Y287037D01*
X68127Y293436D01*
X68127Y302484D01*
X74526Y308883D01*
X83574Y308883D01*
X89973Y302484D01*
X89973Y293436D01*
X83574Y287037D01*
X74526Y287037D01*
G37*
%LPD*%
%LPC*%
G36*
X74526Y312437D02*
X74526Y312437D01*
X68127Y318836D01*
X68127Y327884D01*
X74526Y334283D01*
X83574Y334283D01*
X89973Y327884D01*
X89973Y318836D01*
X83574Y312437D01*
X74526Y312437D01*
G37*
%LPD*%
%LPC*%
G36*
X74526Y388637D02*
X74526Y388637D01*
X68127Y395036D01*
X68127Y404084D01*
X74526Y410483D01*
X83574Y410483D01*
X89973Y404084D01*
X89973Y395036D01*
X83574Y388637D01*
X74526Y388637D01*
G37*
%LPD*%
%LPC*%
G36*
X74526Y363237D02*
X74526Y363237D01*
X68127Y369636D01*
X68127Y378684D01*
X74526Y385083D01*
X83574Y385083D01*
X89973Y378684D01*
X89973Y369636D01*
X83574Y363237D01*
X74526Y363237D01*
G37*
%LPD*%
%LPC*%
G36*
X584877Y287037D02*
X584877Y287037D01*
X580863Y288700D01*
X577790Y291773D01*
X576127Y295787D01*
X576127Y300133D01*
X577790Y304147D01*
X580863Y307220D01*
X584877Y308883D01*
X589223Y308883D01*
X593237Y307220D01*
X596310Y304147D01*
X597973Y300133D01*
X597973Y295787D01*
X596310Y291773D01*
X593237Y288700D01*
X589223Y287037D01*
X584877Y287037D01*
G37*
%LPD*%
%LPC*%
G36*
X610277Y287037D02*
X610277Y287037D01*
X606263Y288700D01*
X603190Y291773D01*
X601527Y295787D01*
X601527Y300133D01*
X603190Y304147D01*
X606263Y307220D01*
X610277Y308883D01*
X614623Y308883D01*
X618637Y307220D01*
X621710Y304147D01*
X623373Y300133D01*
X623373Y295787D01*
X621710Y291773D01*
X618637Y288700D01*
X614623Y287037D01*
X610277Y287037D01*
G37*
%LPD*%
%LPC*%
G36*
X127677Y287037D02*
X127677Y287037D01*
X123663Y288700D01*
X120590Y291773D01*
X118927Y295787D01*
X118927Y300133D01*
X120590Y304147D01*
X123663Y307220D01*
X127677Y308883D01*
X132023Y308883D01*
X136037Y307220D01*
X139110Y304147D01*
X140773Y300133D01*
X140773Y295787D01*
X139110Y291773D01*
X136037Y288700D01*
X132023Y287037D01*
X127677Y287037D01*
G37*
%LPD*%
%LPC*%
G36*
X153077Y287037D02*
X153077Y287037D01*
X149063Y288700D01*
X145990Y291773D01*
X144327Y295787D01*
X144327Y300133D01*
X145990Y304147D01*
X149063Y307220D01*
X153077Y308883D01*
X157423Y308883D01*
X161437Y307220D01*
X164510Y304147D01*
X166173Y300133D01*
X166173Y295787D01*
X164510Y291773D01*
X161437Y288700D01*
X157423Y287037D01*
X153077Y287037D01*
G37*
%LPD*%
%LPC*%
G36*
X178477Y287037D02*
X178477Y287037D01*
X174463Y288700D01*
X171390Y291773D01*
X169727Y295787D01*
X169727Y300133D01*
X171390Y304147D01*
X174463Y307220D01*
X178477Y308883D01*
X182823Y308883D01*
X186837Y307220D01*
X189910Y304147D01*
X191573Y300133D01*
X191573Y295787D01*
X189910Y291773D01*
X186837Y288700D01*
X182823Y287037D01*
X178477Y287037D01*
G37*
%LPD*%
%LPC*%
G36*
X203877Y287037D02*
X203877Y287037D01*
X199863Y288700D01*
X196790Y291773D01*
X195127Y295787D01*
X195127Y300133D01*
X196790Y304147D01*
X199863Y307220D01*
X203877Y308883D01*
X208223Y308883D01*
X212237Y307220D01*
X215310Y304147D01*
X216973Y300133D01*
X216973Y295787D01*
X215310Y291773D01*
X212237Y288700D01*
X208223Y287037D01*
X203877Y287037D01*
G37*
%LPD*%
%LPC*%
G36*
X254677Y287037D02*
X254677Y287037D01*
X250663Y288700D01*
X247590Y291773D01*
X245927Y295787D01*
X245927Y300133D01*
X247590Y304147D01*
X250663Y307220D01*
X254677Y308883D01*
X259023Y308883D01*
X263037Y307220D01*
X266110Y304147D01*
X267773Y300133D01*
X267773Y295787D01*
X266110Y291773D01*
X263037Y288700D01*
X259023Y287037D01*
X254677Y287037D01*
G37*
%LPD*%
%LPC*%
G36*
X280077Y287037D02*
X280077Y287037D01*
X276063Y288700D01*
X272990Y291773D01*
X271327Y295787D01*
X271327Y300133D01*
X272990Y304147D01*
X276063Y307220D01*
X280077Y308883D01*
X284423Y308883D01*
X288437Y307220D01*
X291510Y304147D01*
X293173Y300133D01*
X293173Y295787D01*
X291510Y291773D01*
X288437Y288700D01*
X284423Y287037D01*
X280077Y287037D01*
G37*
%LPD*%
%LPC*%
G36*
X457877Y287037D02*
X457877Y287037D01*
X453863Y288700D01*
X450790Y291773D01*
X449127Y295787D01*
X449127Y300133D01*
X450790Y304147D01*
X453863Y307220D01*
X457877Y308883D01*
X462223Y308883D01*
X466237Y307220D01*
X469310Y304147D01*
X470973Y300133D01*
X470973Y295787D01*
X469310Y291773D01*
X466237Y288700D01*
X462223Y287037D01*
X457877Y287037D01*
G37*
%LPD*%
%LPC*%
G36*
X432477Y287037D02*
X432477Y287037D01*
X428463Y288700D01*
X425390Y291773D01*
X423727Y295787D01*
X423727Y300133D01*
X425390Y304147D01*
X428463Y307220D01*
X432477Y308883D01*
X436823Y308883D01*
X440837Y307220D01*
X443910Y304147D01*
X445573Y300133D01*
X445573Y295787D01*
X443910Y291773D01*
X440837Y288700D01*
X436823Y287037D01*
X432477Y287037D01*
G37*
%LPD*%
%LPC*%
G36*
X407077Y287037D02*
X407077Y287037D01*
X403063Y288700D01*
X399990Y291773D01*
X398327Y295787D01*
X398327Y300133D01*
X399990Y304147D01*
X403063Y307220D01*
X407077Y308883D01*
X411423Y308883D01*
X415437Y307220D01*
X418510Y304147D01*
X420173Y300133D01*
X420173Y295787D01*
X418510Y291773D01*
X415437Y288700D01*
X411423Y287037D01*
X407077Y287037D01*
G37*
%LPD*%
%LPC*%
G36*
X254677Y261637D02*
X254677Y261637D01*
X250663Y263300D01*
X247590Y266373D01*
X245927Y270387D01*
X245927Y274733D01*
X247590Y278747D01*
X250663Y281820D01*
X254677Y283483D01*
X259023Y283483D01*
X263037Y281820D01*
X266110Y278747D01*
X267773Y274733D01*
X267773Y270387D01*
X266110Y266373D01*
X263037Y263300D01*
X259023Y261637D01*
X254677Y261637D01*
G37*
%LPD*%
%LPC*%
G36*
X153077Y261637D02*
X153077Y261637D01*
X149063Y263300D01*
X145990Y266373D01*
X144327Y270387D01*
X144327Y274733D01*
X145990Y278747D01*
X149063Y281820D01*
X153077Y283483D01*
X157423Y283483D01*
X161437Y281820D01*
X164510Y278747D01*
X166173Y274733D01*
X166173Y270387D01*
X164510Y266373D01*
X161437Y263300D01*
X157423Y261637D01*
X153077Y261637D01*
G37*
%LPD*%
%LPC*%
G36*
X280077Y261637D02*
X280077Y261637D01*
X276063Y263300D01*
X272990Y266373D01*
X271327Y270387D01*
X271327Y274733D01*
X272990Y278747D01*
X276063Y281820D01*
X280077Y283483D01*
X284423Y283483D01*
X288437Y281820D01*
X291510Y278747D01*
X293173Y274733D01*
X293173Y270387D01*
X291510Y266373D01*
X288437Y263300D01*
X284423Y261637D01*
X280077Y261637D01*
G37*
%LPD*%
%LPC*%
G36*
X305477Y261637D02*
X305477Y261637D01*
X301463Y263300D01*
X298390Y266373D01*
X296727Y270387D01*
X296727Y274733D01*
X298390Y278747D01*
X301463Y281820D01*
X305477Y283483D01*
X309823Y283483D01*
X313837Y281820D01*
X316910Y278747D01*
X318573Y274733D01*
X318573Y270387D01*
X316910Y266373D01*
X313837Y263300D01*
X309823Y261637D01*
X305477Y261637D01*
G37*
%LPD*%
%LPC*%
G36*
X330877Y287037D02*
X330877Y287037D01*
X326863Y288700D01*
X323790Y291773D01*
X322127Y295787D01*
X322127Y300133D01*
X323790Y304147D01*
X326863Y307220D01*
X330877Y308883D01*
X335223Y308883D01*
X339237Y307220D01*
X342310Y304147D01*
X343973Y300133D01*
X343973Y295787D01*
X342310Y291773D01*
X339237Y288700D01*
X335223Y287037D01*
X330877Y287037D01*
G37*
%LPD*%
%LPC*%
G36*
X330877Y261637D02*
X330877Y261637D01*
X326863Y263300D01*
X323790Y266373D01*
X322127Y270387D01*
X322127Y274733D01*
X323790Y278747D01*
X326863Y281820D01*
X330877Y283483D01*
X335223Y283483D01*
X339237Y281820D01*
X342310Y278747D01*
X343973Y274733D01*
X343973Y270387D01*
X342310Y266373D01*
X339237Y263300D01*
X335223Y261637D01*
X330877Y261637D01*
G37*
%LPD*%
%LPC*%
G36*
X407077Y261637D02*
X407077Y261637D01*
X403063Y263300D01*
X399990Y266373D01*
X398327Y270387D01*
X398327Y274733D01*
X399990Y278747D01*
X403063Y281820D01*
X407077Y283483D01*
X411423Y283483D01*
X415437Y281820D01*
X418510Y278747D01*
X420173Y274733D01*
X420173Y270387D01*
X418510Y266373D01*
X415437Y263300D01*
X411423Y261637D01*
X407077Y261637D01*
G37*
%LPD*%
%LPC*%
G36*
X432477Y261637D02*
X432477Y261637D01*
X428463Y263300D01*
X425390Y266373D01*
X423727Y270387D01*
X423727Y274733D01*
X425390Y278747D01*
X428463Y281820D01*
X432477Y283483D01*
X436823Y283483D01*
X440837Y281820D01*
X443910Y278747D01*
X445573Y274733D01*
X445573Y270387D01*
X443910Y266373D01*
X440837Y263300D01*
X436823Y261637D01*
X432477Y261637D01*
G37*
%LPD*%
%LPC*%
G36*
X457877Y261637D02*
X457877Y261637D01*
X453863Y263300D01*
X450790Y266373D01*
X449127Y270387D01*
X449127Y274733D01*
X450790Y278747D01*
X453863Y281820D01*
X457877Y283483D01*
X462223Y283483D01*
X466237Y281820D01*
X469310Y278747D01*
X470973Y274733D01*
X470973Y270387D01*
X469310Y266373D01*
X466237Y263300D01*
X462223Y261637D01*
X457877Y261637D01*
G37*
%LPD*%
%LPC*%
G36*
X305477Y287037D02*
X305477Y287037D01*
X301463Y288700D01*
X298390Y291773D01*
X296727Y295787D01*
X296727Y300133D01*
X298390Y304147D01*
X301463Y307220D01*
X305477Y308883D01*
X309823Y308883D01*
X313837Y307220D01*
X316910Y304147D01*
X318573Y300133D01*
X318573Y295787D01*
X316910Y291773D01*
X313837Y288700D01*
X309823Y287037D01*
X305477Y287037D01*
G37*
%LPD*%
%LPC*%
G36*
X483277Y261637D02*
X483277Y261637D01*
X479263Y263300D01*
X476190Y266373D01*
X474527Y270387D01*
X474527Y274733D01*
X476190Y278747D01*
X479263Y281820D01*
X483277Y283483D01*
X487623Y283483D01*
X491637Y281820D01*
X494710Y278747D01*
X496373Y274733D01*
X496373Y270387D01*
X494710Y266373D01*
X491637Y263300D01*
X487623Y261637D01*
X483277Y261637D01*
G37*
%LPD*%
%LPC*%
G36*
X483277Y287037D02*
X483277Y287037D01*
X479263Y288700D01*
X476190Y291773D01*
X474527Y295787D01*
X474527Y300133D01*
X476190Y304147D01*
X479263Y307220D01*
X483277Y308883D01*
X487623Y308883D01*
X491637Y307220D01*
X494710Y304147D01*
X496373Y300133D01*
X496373Y295787D01*
X494710Y291773D01*
X491637Y288700D01*
X487623Y287037D01*
X483277Y287037D01*
G37*
%LPD*%
%LPC*%
G36*
X610277Y261637D02*
X610277Y261637D01*
X606263Y263300D01*
X603190Y266373D01*
X601527Y270387D01*
X601527Y274733D01*
X603190Y278747D01*
X606263Y281820D01*
X610277Y283483D01*
X614623Y283483D01*
X618637Y281820D01*
X621710Y278747D01*
X623373Y274733D01*
X623373Y270387D01*
X621710Y266373D01*
X618637Y263300D01*
X614623Y261637D01*
X610277Y261637D01*
G37*
%LPD*%
%LPC*%
G36*
X127677Y261637D02*
X127677Y261637D01*
X123663Y263300D01*
X120590Y266373D01*
X118927Y270387D01*
X118927Y274733D01*
X120590Y278747D01*
X123663Y281820D01*
X127677Y283483D01*
X132023Y283483D01*
X136037Y281820D01*
X139110Y278747D01*
X140773Y274733D01*
X140773Y270387D01*
X139110Y266373D01*
X136037Y263300D01*
X132023Y261637D01*
X127677Y261637D01*
G37*
%LPD*%
%LPC*%
G36*
X534077Y287037D02*
X534077Y287037D01*
X530063Y288700D01*
X526990Y291773D01*
X525327Y295787D01*
X525327Y300133D01*
X526990Y304147D01*
X530063Y307220D01*
X534077Y308883D01*
X538423Y308883D01*
X542437Y307220D01*
X545510Y304147D01*
X547173Y300133D01*
X547173Y295787D01*
X545510Y291773D01*
X542437Y288700D01*
X538423Y287037D01*
X534077Y287037D01*
G37*
%LPD*%
%LPC*%
G36*
X559477Y287037D02*
X559477Y287037D01*
X555463Y288700D01*
X552390Y291773D01*
X550727Y295787D01*
X550727Y300133D01*
X552390Y304147D01*
X555463Y307220D01*
X559477Y308883D01*
X563823Y308883D01*
X567837Y307220D01*
X570910Y304147D01*
X572573Y300133D01*
X572573Y295787D01*
X570910Y291773D01*
X567837Y288700D01*
X563823Y287037D01*
X559477Y287037D01*
G37*
%LPD*%
%LPC*%
G36*
X178477Y261637D02*
X178477Y261637D01*
X174463Y263300D01*
X171390Y266373D01*
X169727Y270387D01*
X169727Y274733D01*
X171390Y278747D01*
X174463Y281820D01*
X178477Y283483D01*
X182823Y283483D01*
X186837Y281820D01*
X189910Y278747D01*
X191573Y274733D01*
X191573Y270387D01*
X189910Y266373D01*
X186837Y263300D01*
X182823Y261637D01*
X178477Y261637D01*
G37*
%LPD*%
%LPC*%
G36*
X203877Y261637D02*
X203877Y261637D01*
X199863Y263300D01*
X196790Y266373D01*
X195127Y270387D01*
X195127Y274733D01*
X196790Y278747D01*
X199863Y281820D01*
X203877Y283483D01*
X208223Y283483D01*
X212237Y281820D01*
X215310Y278747D01*
X216973Y274733D01*
X216973Y270387D01*
X215310Y266373D01*
X212237Y263300D01*
X208223Y261637D01*
X203877Y261637D01*
G37*
%LPD*%
%LPC*%
G36*
X534077Y261637D02*
X534077Y261637D01*
X530063Y263300D01*
X526990Y266373D01*
X525327Y270387D01*
X525327Y274733D01*
X526990Y278747D01*
X530063Y281820D01*
X534077Y283483D01*
X538423Y283483D01*
X542437Y281820D01*
X545510Y278747D01*
X547173Y274733D01*
X547173Y270387D01*
X545510Y266373D01*
X542437Y263300D01*
X538423Y261637D01*
X534077Y261637D01*
G37*
%LPD*%
%LPC*%
G36*
X559477Y261637D02*
X559477Y261637D01*
X555463Y263300D01*
X552390Y266373D01*
X550727Y270387D01*
X550727Y274733D01*
X552390Y278747D01*
X555463Y281820D01*
X559477Y283483D01*
X563823Y283483D01*
X567837Y281820D01*
X570910Y278747D01*
X572573Y274733D01*
X572573Y270387D01*
X570910Y266373D01*
X567837Y263300D01*
X563823Y261637D01*
X559477Y261637D01*
G37*
%LPD*%
%LPC*%
G36*
X584877Y261637D02*
X584877Y261637D01*
X580863Y263300D01*
X577790Y266373D01*
X576127Y270387D01*
X576127Y274733D01*
X577790Y278747D01*
X580863Y281820D01*
X584877Y283483D01*
X589223Y283483D01*
X593237Y281820D01*
X596310Y278747D01*
X597973Y274733D01*
X597973Y270387D01*
X596310Y266373D01*
X593237Y263300D01*
X589223Y261637D01*
X584877Y261637D01*
G37*
%LPD*%
%LPC*%
G36*
X75238Y502647D02*
X75238Y502647D01*
X74047Y503838D01*
X74047Y520762D01*
X75238Y521953D01*
X92162Y521953D01*
X93353Y520762D01*
X93353Y503838D01*
X92162Y502647D01*
X75238Y502647D01*
G37*
%LPD*%
%LPC*%
G36*
X435302Y502647D02*
X435302Y502647D01*
X429647Y508302D01*
X429647Y516298D01*
X435302Y521953D01*
X443298Y521953D01*
X448953Y516298D01*
X448953Y508302D01*
X443298Y502647D01*
X435302Y502647D01*
G37*
%LPD*%
%LPC*%
G36*
X359102Y502647D02*
X359102Y502647D01*
X353447Y508302D01*
X353447Y516298D01*
X359102Y521953D01*
X367098Y521953D01*
X372753Y516298D01*
X372753Y508302D01*
X367098Y502647D01*
X359102Y502647D01*
G37*
%LPD*%
%LPC*%
G36*
X333702Y502647D02*
X333702Y502647D01*
X328047Y508302D01*
X328047Y516298D01*
X333702Y521953D01*
X341698Y521953D01*
X347353Y516298D01*
X347353Y508302D01*
X341698Y502647D01*
X333702Y502647D01*
G37*
%LPD*%
%LPC*%
G36*
X79702Y528047D02*
X79702Y528047D01*
X74047Y533702D01*
X74047Y541698D01*
X79702Y547353D01*
X87698Y547353D01*
X93353Y541698D01*
X93353Y533702D01*
X87698Y528047D01*
X79702Y528047D01*
G37*
%LPD*%
%LPC*%
G36*
X308302Y502647D02*
X308302Y502647D01*
X302647Y508302D01*
X302647Y516298D01*
X308302Y521953D01*
X316298Y521953D01*
X321953Y516298D01*
X321953Y508302D01*
X316298Y502647D01*
X308302Y502647D01*
G37*
%LPD*%
%LPC*%
G36*
X282902Y502647D02*
X282902Y502647D01*
X277247Y508302D01*
X277247Y516298D01*
X282902Y521953D01*
X290898Y521953D01*
X296553Y516298D01*
X296553Y508302D01*
X290898Y502647D01*
X282902Y502647D01*
G37*
%LPD*%
%LPC*%
G36*
X257502Y502647D02*
X257502Y502647D01*
X251847Y508302D01*
X251847Y516298D01*
X257502Y521953D01*
X265498Y521953D01*
X271153Y516298D01*
X271153Y508302D01*
X265498Y502647D01*
X257502Y502647D01*
G37*
%LPD*%
%LPC*%
G36*
X232102Y502647D02*
X232102Y502647D01*
X226447Y508302D01*
X226447Y516298D01*
X232102Y521953D01*
X240098Y521953D01*
X245753Y516298D01*
X245753Y508302D01*
X240098Y502647D01*
X232102Y502647D01*
G37*
%LPD*%
%LPC*%
G36*
X206702Y502647D02*
X206702Y502647D01*
X201047Y508302D01*
X201047Y516298D01*
X206702Y521953D01*
X214698Y521953D01*
X220353Y516298D01*
X220353Y508302D01*
X214698Y502647D01*
X206702Y502647D01*
G37*
%LPD*%
%LPC*%
G36*
X155902Y502647D02*
X155902Y502647D01*
X150247Y508302D01*
X150247Y516298D01*
X155902Y521953D01*
X163898Y521953D01*
X169553Y516298D01*
X169553Y508302D01*
X163898Y502647D01*
X155902Y502647D01*
G37*
%LPD*%
%LPC*%
G36*
X536902Y528047D02*
X536902Y528047D01*
X531247Y533702D01*
X531247Y541698D01*
X536902Y547353D01*
X544898Y547353D01*
X550553Y541698D01*
X550553Y533702D01*
X544898Y528047D01*
X536902Y528047D01*
G37*
%LPD*%
%LPC*%
G36*
X511502Y528047D02*
X511502Y528047D01*
X505847Y533702D01*
X505847Y541698D01*
X511502Y547353D01*
X519498Y547353D01*
X525153Y541698D01*
X525153Y533702D01*
X519498Y528047D01*
X511502Y528047D01*
G37*
%LPD*%
%LPC*%
G36*
X460702Y528047D02*
X460702Y528047D01*
X455047Y533702D01*
X455047Y541698D01*
X460702Y547353D01*
X468698Y547353D01*
X474353Y541698D01*
X474353Y533702D01*
X468698Y528047D01*
X460702Y528047D01*
G37*
%LPD*%
%LPC*%
G36*
X409902Y528047D02*
X409902Y528047D01*
X404247Y533702D01*
X404247Y541698D01*
X409902Y547353D01*
X417898Y547353D01*
X423553Y541698D01*
X423553Y533702D01*
X417898Y528047D01*
X409902Y528047D01*
G37*
%LPD*%
%LPC*%
G36*
X359102Y528047D02*
X359102Y528047D01*
X353447Y533702D01*
X353447Y541698D01*
X359102Y547353D01*
X367098Y547353D01*
X372753Y541698D01*
X372753Y533702D01*
X367098Y528047D01*
X359102Y528047D01*
G37*
%LPD*%
%LPC*%
G36*
X333702Y528047D02*
X333702Y528047D01*
X328047Y533702D01*
X328047Y541698D01*
X333702Y547353D01*
X341698Y547353D01*
X347353Y541698D01*
X347353Y533702D01*
X341698Y528047D01*
X333702Y528047D01*
G37*
%LPD*%
%LPC*%
G36*
X384502Y528047D02*
X384502Y528047D01*
X378847Y533702D01*
X378847Y541698D01*
X384502Y547353D01*
X392498Y547353D01*
X398153Y541698D01*
X398153Y533702D01*
X392498Y528047D01*
X384502Y528047D01*
G37*
%LPD*%
%LPC*%
G36*
X282902Y528047D02*
X282902Y528047D01*
X277247Y533702D01*
X277247Y541698D01*
X282902Y547353D01*
X290898Y547353D01*
X296553Y541698D01*
X296553Y533702D01*
X290898Y528047D01*
X282902Y528047D01*
G37*
%LPD*%
%LPC*%
G36*
X257502Y528047D02*
X257502Y528047D01*
X251847Y533702D01*
X251847Y541698D01*
X257502Y547353D01*
X265498Y547353D01*
X271153Y541698D01*
X271153Y533702D01*
X265498Y528047D01*
X257502Y528047D01*
G37*
%LPD*%
%LPC*%
G36*
X206702Y528047D02*
X206702Y528047D01*
X201047Y533702D01*
X201047Y541698D01*
X206702Y547353D01*
X214698Y547353D01*
X220353Y541698D01*
X220353Y533702D01*
X214698Y528047D01*
X206702Y528047D01*
G37*
%LPD*%
%LPC*%
G36*
X181302Y528047D02*
X181302Y528047D01*
X175647Y533702D01*
X175647Y541698D01*
X181302Y547353D01*
X189298Y547353D01*
X194953Y541698D01*
X194953Y533702D01*
X189298Y528047D01*
X181302Y528047D01*
G37*
%LPD*%
%LPC*%
G36*
X105102Y528047D02*
X105102Y528047D01*
X99447Y533702D01*
X99447Y541698D01*
X105102Y547353D01*
X113098Y547353D01*
X118753Y541698D01*
X118753Y533702D01*
X113098Y528047D01*
X105102Y528047D01*
G37*
%LPD*%
%LPC*%
G36*
X155902Y528047D02*
X155902Y528047D01*
X150247Y533702D01*
X150247Y541698D01*
X155902Y547353D01*
X163898Y547353D01*
X169553Y541698D01*
X169553Y533702D01*
X163898Y528047D01*
X155902Y528047D01*
G37*
%LPD*%
%LPC*%
G36*
X562302Y528047D02*
X562302Y528047D01*
X556647Y533702D01*
X556647Y541698D01*
X562302Y547353D01*
X570298Y547353D01*
X575953Y541698D01*
X575953Y533702D01*
X570298Y528047D01*
X562302Y528047D01*
G37*
%LPD*%
%LPC*%
G36*
X511502Y502647D02*
X511502Y502647D01*
X505847Y508302D01*
X505847Y516298D01*
X511502Y521953D01*
X519498Y521953D01*
X525153Y516298D01*
X525153Y508302D01*
X519498Y502647D01*
X511502Y502647D01*
G37*
%LPD*%
%LPC*%
G36*
X130502Y502647D02*
X130502Y502647D01*
X124847Y508302D01*
X124847Y516298D01*
X130502Y521953D01*
X138498Y521953D01*
X144153Y516298D01*
X144153Y508302D01*
X138498Y502647D01*
X130502Y502647D01*
G37*
%LPD*%
%LPC*%
G36*
X105102Y502647D02*
X105102Y502647D01*
X99447Y508302D01*
X99447Y516298D01*
X105102Y521953D01*
X113098Y521953D01*
X118753Y516298D01*
X118753Y508302D01*
X113098Y502647D01*
X105102Y502647D01*
G37*
%LPD*%
%LPC*%
G36*
X409902Y502647D02*
X409902Y502647D01*
X404247Y508302D01*
X404247Y516298D01*
X409902Y521953D01*
X417898Y521953D01*
X423553Y516298D01*
X423553Y508302D01*
X417898Y502647D01*
X409902Y502647D01*
G37*
%LPD*%
%LPC*%
G36*
X536902Y502647D02*
X536902Y502647D01*
X531247Y508302D01*
X531247Y516298D01*
X536902Y521953D01*
X544898Y521953D01*
X550553Y516298D01*
X550553Y508302D01*
X544898Y502647D01*
X536902Y502647D01*
G37*
%LPD*%
%LPC*%
G36*
X486102Y502647D02*
X486102Y502647D01*
X480447Y508302D01*
X480447Y516298D01*
X486102Y521953D01*
X494098Y521953D01*
X499753Y516298D01*
X499753Y508302D01*
X494098Y502647D01*
X486102Y502647D01*
G37*
%LPD*%
%LPC*%
G36*
X460702Y502647D02*
X460702Y502647D01*
X455047Y508302D01*
X455047Y516298D01*
X460702Y521953D01*
X468698Y521953D01*
X474353Y516298D01*
X474353Y508302D01*
X468698Y502647D01*
X460702Y502647D01*
G37*
%LPD*%
%LPC*%
G36*
X390649Y451589D02*
X390649Y451589D01*
X390649Y462325D01*
X391303Y462221D01*
X393318Y461566D01*
X395206Y460604D01*
X396920Y459359D01*
X398419Y457860D01*
X399664Y456146D01*
X400626Y454258D01*
X401281Y452243D01*
X401385Y451589D01*
X390649Y451589D01*
G37*
%LPD*%
%LPC*%
G36*
X374915Y451589D02*
X374915Y451589D01*
X375019Y452243D01*
X375674Y454258D01*
X376636Y456146D01*
X377881Y457860D01*
X379380Y459359D01*
X381094Y460604D01*
X382982Y461566D01*
X384997Y462221D01*
X385651Y462325D01*
X385651Y451589D01*
X374915Y451589D01*
G37*
%LPD*%
%LPC*%
G36*
X81589Y427499D02*
X81589Y427499D01*
X81589Y436391D01*
X83785Y436391D01*
X90481Y429695D01*
X90481Y427499D01*
X81589Y427499D01*
G37*
%LPD*%
%LPC*%
G36*
X67619Y427499D02*
X67619Y427499D01*
X67619Y429695D01*
X74315Y436391D01*
X76511Y436391D01*
X76511Y427499D01*
X67619Y427499D01*
G37*
%LPD*%
%LPC*%
G36*
X81589Y413529D02*
X81589Y413529D01*
X81589Y422421D01*
X90481Y422421D01*
X90481Y420225D01*
X83785Y413529D01*
X81589Y413529D01*
G37*
%LPD*%
%LPC*%
G36*
X74315Y413529D02*
X74315Y413529D01*
X67619Y420225D01*
X67619Y422421D01*
X76511Y422421D01*
X76511Y413529D01*
X74315Y413529D01*
G37*
%LPD*%
%LPC*%
G36*
X162361Y447311D02*
X162361Y447311D01*
X162361Y455822D01*
X164697Y455822D01*
X170872Y449647D01*
X170872Y447311D01*
X162361Y447311D01*
G37*
%LPD*%
%LPC*%
G36*
X162361Y434738D02*
X162361Y434738D01*
X162361Y443249D01*
X170872Y443249D01*
X170872Y440913D01*
X164697Y434738D01*
X162361Y434738D01*
G37*
%LPD*%
%LPC*%
G36*
X149788Y447311D02*
X149788Y447311D01*
X149788Y449647D01*
X155963Y455822D01*
X158299Y455822D01*
X158299Y447311D01*
X149788Y447311D01*
G37*
%LPD*%
%LPC*%
G36*
X155963Y434738D02*
X155963Y434738D01*
X149788Y440913D01*
X149788Y443249D01*
X158299Y443249D01*
X158299Y434738D01*
X155963Y434738D01*
G37*
%LPD*%
%LPC*%
G36*
X437149Y249659D02*
X437149Y249659D01*
X437149Y258337D01*
X437327Y258309D01*
X439038Y257753D01*
X440641Y256937D01*
X442097Y255879D01*
X443369Y254607D01*
X444427Y253151D01*
X445243Y251548D01*
X445799Y249837D01*
X445827Y249659D01*
X437149Y249659D01*
G37*
%LPD*%
%LPC*%
G36*
X411749Y249659D02*
X411749Y249659D01*
X411749Y258337D01*
X411927Y258309D01*
X413638Y257753D01*
X415241Y256937D01*
X416697Y255879D01*
X417969Y254607D01*
X419027Y253151D01*
X419843Y251548D01*
X420399Y249837D01*
X420427Y249659D01*
X411749Y249659D01*
G37*
%LPD*%
%LPC*%
G36*
X335549Y249659D02*
X335549Y249659D01*
X335549Y258337D01*
X335727Y258309D01*
X337438Y257753D01*
X339041Y256937D01*
X340497Y255879D01*
X341769Y254607D01*
X342827Y253151D01*
X343643Y251548D01*
X344199Y249837D01*
X344227Y249659D01*
X335549Y249659D01*
G37*
%LPD*%
%LPC*%
G36*
X462549Y249659D02*
X462549Y249659D01*
X462549Y258337D01*
X462727Y258309D01*
X464438Y257753D01*
X466041Y256937D01*
X467497Y255879D01*
X468769Y254607D01*
X469827Y253151D01*
X470643Y251548D01*
X471199Y249837D01*
X471227Y249659D01*
X462549Y249659D01*
G37*
%LPD*%
%LPC*%
G36*
X310149Y249659D02*
X310149Y249659D01*
X310149Y258337D01*
X310327Y258309D01*
X312038Y257753D01*
X313641Y256937D01*
X315097Y255879D01*
X316369Y254607D01*
X317427Y253151D01*
X318243Y251548D01*
X318799Y249837D01*
X318827Y249659D01*
X310149Y249659D01*
G37*
%LPD*%
%LPC*%
G36*
X614949Y249659D02*
X614949Y249659D01*
X614949Y258337D01*
X615127Y258309D01*
X616838Y257753D01*
X618441Y256937D01*
X619897Y255879D01*
X621169Y254607D01*
X622227Y253151D01*
X623043Y251548D01*
X623599Y249837D01*
X623627Y249659D01*
X614949Y249659D01*
G37*
%LPD*%
%LPC*%
G36*
X284749Y249659D02*
X284749Y249659D01*
X284749Y258337D01*
X284927Y258309D01*
X286638Y257753D01*
X288241Y256937D01*
X289697Y255879D01*
X290969Y254607D01*
X292027Y253151D01*
X292843Y251548D01*
X293399Y249837D01*
X293427Y249659D01*
X284749Y249659D01*
G37*
%LPD*%
%LPC*%
G36*
X259349Y249659D02*
X259349Y249659D01*
X259349Y258337D01*
X259527Y258309D01*
X261238Y257753D01*
X262841Y256937D01*
X264297Y255879D01*
X265569Y254607D01*
X266627Y253151D01*
X267443Y251548D01*
X267999Y249837D01*
X268027Y249659D01*
X259349Y249659D01*
G37*
%LPD*%
%LPC*%
G36*
X183149Y249659D02*
X183149Y249659D01*
X183149Y258337D01*
X183327Y258309D01*
X185038Y257753D01*
X186641Y256937D01*
X188097Y255879D01*
X189369Y254607D01*
X190427Y253151D01*
X191243Y251548D01*
X191799Y249837D01*
X191827Y249659D01*
X183149Y249659D01*
G37*
%LPD*%
%LPC*%
G36*
X208549Y249659D02*
X208549Y249659D01*
X208549Y258337D01*
X208727Y258309D01*
X210438Y257753D01*
X212041Y256937D01*
X213497Y255879D01*
X214769Y254607D01*
X215827Y253151D01*
X216643Y251548D01*
X217199Y249837D01*
X217227Y249659D01*
X208549Y249659D01*
G37*
%LPD*%
%LPC*%
G36*
X564149Y249659D02*
X564149Y249659D01*
X564149Y258337D01*
X564327Y258309D01*
X566038Y257753D01*
X567641Y256937D01*
X569097Y255879D01*
X570369Y254607D01*
X571427Y253151D01*
X572243Y251548D01*
X572799Y249837D01*
X572827Y249659D01*
X564149Y249659D01*
G37*
%LPD*%
%LPC*%
G36*
X132349Y249659D02*
X132349Y249659D01*
X132349Y258337D01*
X132527Y258309D01*
X134238Y257753D01*
X135841Y256937D01*
X137297Y255879D01*
X138569Y254607D01*
X139627Y253151D01*
X140443Y251548D01*
X140999Y249837D01*
X141027Y249659D01*
X132349Y249659D01*
G37*
%LPD*%
%LPC*%
G36*
X589549Y249659D02*
X589549Y249659D01*
X589549Y258337D01*
X589727Y258309D01*
X591438Y257753D01*
X593041Y256937D01*
X594497Y255879D01*
X595769Y254607D01*
X596827Y253151D01*
X597643Y251548D01*
X598199Y249837D01*
X598227Y249659D01*
X589549Y249659D01*
G37*
%LPD*%
%LPC*%
G36*
X487949Y249659D02*
X487949Y249659D01*
X487949Y258337D01*
X488127Y258309D01*
X489838Y257753D01*
X491441Y256937D01*
X492897Y255879D01*
X494169Y254607D01*
X495227Y253151D01*
X496043Y251548D01*
X496599Y249837D01*
X496627Y249659D01*
X487949Y249659D01*
G37*
%LPD*%
%LPC*%
G36*
X538749Y249659D02*
X538749Y249659D01*
X538749Y258337D01*
X538927Y258309D01*
X540638Y257753D01*
X542241Y256937D01*
X543697Y255879D01*
X544969Y254607D01*
X546027Y253151D01*
X546843Y251548D01*
X547399Y249837D01*
X547427Y249659D01*
X538749Y249659D01*
G37*
%LPD*%
%LPC*%
G36*
X157749Y249659D02*
X157749Y249659D01*
X157749Y258337D01*
X157927Y258309D01*
X159638Y257753D01*
X161241Y256937D01*
X162697Y255879D01*
X163969Y254607D01*
X165027Y253151D01*
X165843Y251548D01*
X166399Y249837D01*
X166427Y249659D01*
X157749Y249659D01*
G37*
%LPD*%
%LPC*%
G36*
X335549Y244661D02*
X335549Y244661D01*
X344227Y244661D01*
X344199Y244483D01*
X343643Y242772D01*
X342827Y241169D01*
X341769Y239713D01*
X340497Y238441D01*
X339041Y237383D01*
X337438Y236567D01*
X335727Y236011D01*
X335549Y235983D01*
X335549Y244661D01*
G37*
%LPD*%
%LPC*%
G36*
X132349Y244661D02*
X132349Y244661D01*
X141027Y244661D01*
X140999Y244483D01*
X140443Y242772D01*
X139627Y241169D01*
X138569Y239713D01*
X137297Y238441D01*
X135841Y237383D01*
X134238Y236567D01*
X132527Y236011D01*
X132349Y235983D01*
X132349Y244661D01*
G37*
%LPD*%
%LPC*%
G36*
X411749Y244661D02*
X411749Y244661D01*
X420427Y244661D01*
X420399Y244483D01*
X419843Y242772D01*
X419027Y241169D01*
X417969Y239713D01*
X416697Y238441D01*
X415241Y237383D01*
X413638Y236567D01*
X411927Y236011D01*
X411749Y235983D01*
X411749Y244661D01*
G37*
%LPD*%
%LPC*%
G36*
X437149Y244661D02*
X437149Y244661D01*
X445827Y244661D01*
X445799Y244483D01*
X445243Y242772D01*
X444427Y241169D01*
X443369Y239713D01*
X442097Y238441D01*
X440641Y237383D01*
X439038Y236567D01*
X437327Y236011D01*
X437149Y235983D01*
X437149Y244661D01*
G37*
%LPD*%
%LPC*%
G36*
X462549Y244661D02*
X462549Y244661D01*
X471227Y244661D01*
X471199Y244483D01*
X470643Y242772D01*
X469827Y241169D01*
X468769Y239713D01*
X467497Y238441D01*
X466041Y237383D01*
X464438Y236567D01*
X462727Y236011D01*
X462549Y235983D01*
X462549Y244661D01*
G37*
%LPD*%
%LPC*%
G36*
X208549Y244661D02*
X208549Y244661D01*
X217227Y244661D01*
X217199Y244483D01*
X216643Y242772D01*
X215827Y241169D01*
X214769Y239713D01*
X213497Y238441D01*
X212041Y237383D01*
X210438Y236567D01*
X208727Y236011D01*
X208549Y235983D01*
X208549Y244661D01*
G37*
%LPD*%
%LPC*%
G36*
X538749Y244661D02*
X538749Y244661D01*
X547427Y244661D01*
X547399Y244483D01*
X546843Y242772D01*
X546027Y241169D01*
X544969Y239713D01*
X543697Y238441D01*
X542241Y237383D01*
X540638Y236567D01*
X538927Y236011D01*
X538749Y235983D01*
X538749Y244661D01*
G37*
%LPD*%
%LPC*%
G36*
X589549Y244661D02*
X589549Y244661D01*
X598227Y244661D01*
X598199Y244483D01*
X597643Y242772D01*
X596827Y241169D01*
X595769Y239713D01*
X594497Y238441D01*
X593041Y237383D01*
X591438Y236567D01*
X589727Y236011D01*
X589549Y235983D01*
X589549Y244661D01*
G37*
%LPD*%
%LPC*%
G36*
X614949Y244661D02*
X614949Y244661D01*
X623627Y244661D01*
X623599Y244483D01*
X623043Y242772D01*
X622227Y241169D01*
X621169Y239713D01*
X619897Y238441D01*
X618441Y237383D01*
X616838Y236567D01*
X615127Y236011D01*
X614949Y235983D01*
X614949Y244661D01*
G37*
%LPD*%
%LPC*%
G36*
X157749Y244661D02*
X157749Y244661D01*
X166427Y244661D01*
X166399Y244483D01*
X165843Y242772D01*
X165027Y241169D01*
X163969Y239713D01*
X162697Y238441D01*
X161241Y237383D01*
X159638Y236567D01*
X157927Y236011D01*
X157749Y235983D01*
X157749Y244661D01*
G37*
%LPD*%
%LPC*%
G36*
X183149Y244661D02*
X183149Y244661D01*
X191827Y244661D01*
X191799Y244483D01*
X191243Y242772D01*
X190427Y241169D01*
X189369Y239713D01*
X188097Y238441D01*
X186641Y237383D01*
X185038Y236567D01*
X183327Y236011D01*
X183149Y235983D01*
X183149Y244661D01*
G37*
%LPD*%
%LPC*%
G36*
X271073Y249659D02*
X271073Y249659D01*
X271101Y249837D01*
X271657Y251548D01*
X272473Y253151D01*
X273531Y254607D01*
X274803Y255879D01*
X276259Y256937D01*
X277862Y257753D01*
X279573Y258309D01*
X279751Y258337D01*
X279751Y249659D01*
X271073Y249659D01*
G37*
%LPD*%
%LPC*%
G36*
X564149Y244661D02*
X564149Y244661D01*
X572827Y244661D01*
X572799Y244483D01*
X572243Y242772D01*
X571427Y241169D01*
X570369Y239713D01*
X569097Y238441D01*
X567641Y237383D01*
X566038Y236567D01*
X564327Y236011D01*
X564149Y235983D01*
X564149Y244661D01*
G37*
%LPD*%
%LPC*%
G36*
X259349Y244661D02*
X259349Y244661D01*
X268027Y244661D01*
X267999Y244483D01*
X267443Y242772D01*
X266627Y241169D01*
X265569Y239713D01*
X264297Y238441D01*
X262841Y237383D01*
X261238Y236567D01*
X259527Y236011D01*
X259349Y235983D01*
X259349Y244661D01*
G37*
%LPD*%
%LPC*%
G36*
X284749Y244661D02*
X284749Y244661D01*
X293427Y244661D01*
X293399Y244483D01*
X292843Y242772D01*
X292027Y241169D01*
X290969Y239713D01*
X289697Y238441D01*
X288241Y237383D01*
X286638Y236567D01*
X284927Y236011D01*
X284749Y235983D01*
X284749Y244661D01*
G37*
%LPD*%
%LPC*%
G36*
X296473Y249659D02*
X296473Y249659D01*
X296501Y249837D01*
X297057Y251548D01*
X297873Y253151D01*
X298931Y254607D01*
X300203Y255879D01*
X301659Y256937D01*
X303262Y257753D01*
X304973Y258309D01*
X305151Y258337D01*
X305151Y249659D01*
X296473Y249659D01*
G37*
%LPD*%
%LPC*%
G36*
X144073Y249659D02*
X144073Y249659D01*
X144101Y249837D01*
X144657Y251548D01*
X145473Y253151D01*
X146531Y254607D01*
X147803Y255879D01*
X149259Y256937D01*
X150862Y257753D01*
X152573Y258309D01*
X152751Y258337D01*
X152751Y249659D01*
X144073Y249659D01*
G37*
%LPD*%
%LPC*%
G36*
X321873Y249659D02*
X321873Y249659D01*
X321901Y249837D01*
X322457Y251548D01*
X323273Y253151D01*
X324331Y254607D01*
X325603Y255879D01*
X327059Y256937D01*
X328662Y257753D01*
X330373Y258309D01*
X330551Y258337D01*
X330551Y249659D01*
X321873Y249659D01*
G37*
%LPD*%
%LPC*%
G36*
X398073Y249659D02*
X398073Y249659D01*
X398101Y249837D01*
X398657Y251548D01*
X399473Y253151D01*
X400531Y254607D01*
X401803Y255879D01*
X403259Y256937D01*
X404862Y257753D01*
X406573Y258309D01*
X406751Y258337D01*
X406751Y249659D01*
X398073Y249659D01*
G37*
%LPD*%
%LPC*%
G36*
X118673Y249659D02*
X118673Y249659D01*
X118701Y249837D01*
X119257Y251548D01*
X120073Y253151D01*
X121131Y254607D01*
X122403Y255879D01*
X123859Y256937D01*
X125462Y257753D01*
X127173Y258309D01*
X127351Y258337D01*
X127351Y249659D01*
X118673Y249659D01*
G37*
%LPD*%
%LPC*%
G36*
X601273Y249659D02*
X601273Y249659D01*
X601301Y249837D01*
X601857Y251548D01*
X602673Y253151D01*
X603731Y254607D01*
X605003Y255879D01*
X606459Y256937D01*
X608062Y257753D01*
X609773Y258309D01*
X609951Y258337D01*
X609951Y249659D01*
X601273Y249659D01*
G37*
%LPD*%
%LPC*%
G36*
X245673Y249659D02*
X245673Y249659D01*
X245701Y249837D01*
X246257Y251548D01*
X247073Y253151D01*
X248131Y254607D01*
X249403Y255879D01*
X250859Y256937D01*
X252462Y257753D01*
X254173Y258309D01*
X254351Y258337D01*
X254351Y249659D01*
X245673Y249659D01*
G37*
%LPD*%
%LPC*%
G36*
X575873Y249659D02*
X575873Y249659D01*
X575901Y249837D01*
X576457Y251548D01*
X577273Y253151D01*
X578331Y254607D01*
X579603Y255879D01*
X581059Y256937D01*
X582662Y257753D01*
X584373Y258309D01*
X584551Y258337D01*
X584551Y249659D01*
X575873Y249659D01*
G37*
%LPD*%
%LPC*%
G36*
X448873Y249659D02*
X448873Y249659D01*
X448901Y249837D01*
X449457Y251548D01*
X450273Y253151D01*
X451331Y254607D01*
X452603Y255879D01*
X454059Y256937D01*
X455662Y257753D01*
X457373Y258309D01*
X457551Y258337D01*
X457551Y249659D01*
X448873Y249659D01*
G37*
%LPD*%
%LPC*%
G36*
X487949Y244661D02*
X487949Y244661D01*
X496627Y244661D01*
X496599Y244483D01*
X496043Y242772D01*
X495227Y241169D01*
X494169Y239713D01*
X492897Y238441D01*
X491441Y237383D01*
X489838Y236567D01*
X488127Y236011D01*
X487949Y235983D01*
X487949Y244661D01*
G37*
%LPD*%
%LPC*%
G36*
X474273Y249659D02*
X474273Y249659D01*
X474301Y249837D01*
X474857Y251548D01*
X475673Y253151D01*
X476731Y254607D01*
X478003Y255879D01*
X479459Y256937D01*
X481062Y257753D01*
X482773Y258309D01*
X482951Y258337D01*
X482951Y249659D01*
X474273Y249659D01*
G37*
%LPD*%
%LPC*%
G36*
X194873Y249659D02*
X194873Y249659D01*
X194901Y249837D01*
X195457Y251548D01*
X196273Y253151D01*
X197331Y254607D01*
X198603Y255879D01*
X200059Y256937D01*
X201662Y257753D01*
X203373Y258309D01*
X203551Y258337D01*
X203551Y249659D01*
X194873Y249659D01*
G37*
%LPD*%
%LPC*%
G36*
X525073Y249659D02*
X525073Y249659D01*
X525101Y249837D01*
X525657Y251548D01*
X526473Y253151D01*
X527531Y254607D01*
X528803Y255879D01*
X530259Y256937D01*
X531862Y257753D01*
X533573Y258309D01*
X533751Y258337D01*
X533751Y249659D01*
X525073Y249659D01*
G37*
%LPD*%
%LPC*%
G36*
X423473Y249659D02*
X423473Y249659D01*
X423501Y249837D01*
X424057Y251548D01*
X424873Y253151D01*
X425931Y254607D01*
X427203Y255879D01*
X428659Y256937D01*
X430262Y257753D01*
X431973Y258309D01*
X432151Y258337D01*
X432151Y249659D01*
X423473Y249659D01*
G37*
%LPD*%
%LPC*%
G36*
X169473Y249659D02*
X169473Y249659D01*
X169501Y249837D01*
X170057Y251548D01*
X170873Y253151D01*
X171931Y254607D01*
X173203Y255879D01*
X174659Y256937D01*
X176262Y257753D01*
X177973Y258309D01*
X178151Y258337D01*
X178151Y249659D01*
X169473Y249659D01*
G37*
%LPD*%
%LPC*%
G36*
X550473Y249659D02*
X550473Y249659D01*
X550501Y249837D01*
X551057Y251548D01*
X551873Y253151D01*
X552931Y254607D01*
X554203Y255879D01*
X555659Y256937D01*
X557262Y257753D01*
X558973Y258309D01*
X559151Y258337D01*
X559151Y249659D01*
X550473Y249659D01*
G37*
%LPD*%
%LPC*%
G36*
X310149Y244661D02*
X310149Y244661D01*
X318827Y244661D01*
X318799Y244483D01*
X318243Y242772D01*
X317427Y241169D01*
X316369Y239713D01*
X315097Y238441D01*
X313641Y237383D01*
X312038Y236567D01*
X310327Y236011D01*
X310149Y235983D01*
X310149Y244661D01*
G37*
%LPD*%
%LPC*%
G36*
X152573Y236011D02*
X152573Y236011D01*
X150862Y236567D01*
X149259Y237383D01*
X147803Y238441D01*
X146531Y239713D01*
X145473Y241169D01*
X144657Y242772D01*
X144101Y244483D01*
X144073Y244661D01*
X152751Y244661D01*
X152751Y235983D01*
X152573Y236011D01*
G37*
%LPD*%
%LPC*%
G36*
X279573Y236011D02*
X279573Y236011D01*
X277862Y236567D01*
X276259Y237383D01*
X274803Y238441D01*
X273531Y239713D01*
X272473Y241169D01*
X271657Y242772D01*
X271101Y244483D01*
X271073Y244661D01*
X279751Y244661D01*
X279751Y235983D01*
X279573Y236011D01*
G37*
%LPD*%
%LPC*%
G36*
X254173Y236011D02*
X254173Y236011D01*
X252462Y236567D01*
X250859Y237383D01*
X249403Y238441D01*
X248131Y239713D01*
X247073Y241169D01*
X246257Y242772D01*
X245701Y244483D01*
X245673Y244661D01*
X254351Y244661D01*
X254351Y235983D01*
X254173Y236011D01*
G37*
%LPD*%
%LPC*%
G36*
X482773Y236011D02*
X482773Y236011D01*
X481062Y236567D01*
X479459Y237383D01*
X478003Y238441D01*
X476731Y239713D01*
X475673Y241169D01*
X474857Y242772D01*
X474301Y244483D01*
X474273Y244661D01*
X482951Y244661D01*
X482951Y235983D01*
X482773Y236011D01*
G37*
%LPD*%
%LPC*%
G36*
X177973Y236011D02*
X177973Y236011D01*
X176262Y236567D01*
X174659Y237383D01*
X173203Y238441D01*
X171931Y239713D01*
X170873Y241169D01*
X170057Y242772D01*
X169501Y244483D01*
X169473Y244661D01*
X178151Y244661D01*
X178151Y235983D01*
X177973Y236011D01*
G37*
%LPD*%
%LPC*%
G36*
X406573Y236011D02*
X406573Y236011D01*
X404862Y236567D01*
X403259Y237383D01*
X401803Y238441D01*
X400531Y239713D01*
X399473Y241169D01*
X398657Y242772D01*
X398101Y244483D01*
X398073Y244661D01*
X406751Y244661D01*
X406751Y235983D01*
X406573Y236011D01*
G37*
%LPD*%
%LPC*%
G36*
X609773Y236011D02*
X609773Y236011D01*
X608062Y236567D01*
X606459Y237383D01*
X605003Y238441D01*
X603731Y239713D01*
X602673Y241169D01*
X601857Y242772D01*
X601301Y244483D01*
X601273Y244661D01*
X609951Y244661D01*
X609951Y235983D01*
X609773Y236011D01*
G37*
%LPD*%
%LPC*%
G36*
X584373Y236011D02*
X584373Y236011D01*
X582662Y236567D01*
X581059Y237383D01*
X579603Y238441D01*
X578331Y239713D01*
X577273Y241169D01*
X576457Y242772D01*
X575901Y244483D01*
X575873Y244661D01*
X584551Y244661D01*
X584551Y235983D01*
X584373Y236011D01*
G37*
%LPD*%
%LPC*%
G36*
X127173Y236011D02*
X127173Y236011D01*
X125462Y236567D01*
X123859Y237383D01*
X122403Y238441D01*
X121131Y239713D01*
X120073Y241169D01*
X119257Y242772D01*
X118701Y244483D01*
X118673Y244661D01*
X127351Y244661D01*
X127351Y235983D01*
X127173Y236011D01*
G37*
%LPD*%
%LPC*%
G36*
X558973Y236011D02*
X558973Y236011D01*
X557262Y236567D01*
X555659Y237383D01*
X554203Y238441D01*
X552931Y239713D01*
X551873Y241169D01*
X551057Y242772D01*
X550501Y244483D01*
X550473Y244661D01*
X559151Y244661D01*
X559151Y235983D01*
X558973Y236011D01*
G37*
%LPD*%
%LPC*%
G36*
X457373Y236011D02*
X457373Y236011D01*
X455662Y236567D01*
X454059Y237383D01*
X452603Y238441D01*
X451331Y239713D01*
X450273Y241169D01*
X449457Y242772D01*
X448901Y244483D01*
X448873Y244661D01*
X457551Y244661D01*
X457551Y235983D01*
X457373Y236011D01*
G37*
%LPD*%
%LPC*%
G36*
X431973Y236011D02*
X431973Y236011D01*
X430262Y236567D01*
X428659Y237383D01*
X427203Y238441D01*
X425931Y239713D01*
X424873Y241169D01*
X424057Y242772D01*
X423501Y244483D01*
X423473Y244661D01*
X432151Y244661D01*
X432151Y235983D01*
X431973Y236011D01*
G37*
%LPD*%
%LPC*%
G36*
X330373Y236011D02*
X330373Y236011D01*
X328662Y236567D01*
X327059Y237383D01*
X325603Y238441D01*
X324331Y239713D01*
X323273Y241169D01*
X322457Y242772D01*
X321901Y244483D01*
X321873Y244661D01*
X330551Y244661D01*
X330551Y235983D01*
X330373Y236011D01*
G37*
%LPD*%
%LPC*%
G36*
X533573Y236011D02*
X533573Y236011D01*
X531862Y236567D01*
X530259Y237383D01*
X528803Y238441D01*
X527531Y239713D01*
X526473Y241169D01*
X525657Y242772D01*
X525101Y244483D01*
X525073Y244661D01*
X533751Y244661D01*
X533751Y235983D01*
X533573Y236011D01*
G37*
%LPD*%
%LPC*%
G36*
X304973Y236011D02*
X304973Y236011D01*
X303262Y236567D01*
X301659Y237383D01*
X300203Y238441D01*
X298931Y239713D01*
X297873Y241169D01*
X297057Y242772D01*
X296501Y244483D01*
X296473Y244661D01*
X305151Y244661D01*
X305151Y235983D01*
X304973Y236011D01*
G37*
%LPD*%
%LPC*%
G36*
X203373Y236011D02*
X203373Y236011D01*
X201662Y236567D01*
X200059Y237383D01*
X198603Y238441D01*
X197331Y239713D01*
X196273Y241169D01*
X195457Y242772D01*
X194901Y244483D01*
X194873Y244661D01*
X203551Y244661D01*
X203551Y235983D01*
X203373Y236011D01*
G37*
%LPD*%
%LPC*%
G36*
X441839Y540239D02*
X441839Y540239D01*
X441839Y547861D01*
X443509Y547861D01*
X449461Y541909D01*
X449461Y540239D01*
X441839Y540239D01*
G37*
%LPD*%
%LPC*%
G36*
X314839Y540239D02*
X314839Y540239D01*
X314839Y547861D01*
X316509Y547861D01*
X322461Y541909D01*
X322461Y540239D01*
X314839Y540239D01*
G37*
%LPD*%
%LPC*%
G36*
X391039Y514839D02*
X391039Y514839D01*
X391039Y522461D01*
X392709Y522461D01*
X398661Y516509D01*
X398661Y514839D01*
X391039Y514839D01*
G37*
%LPD*%
%LPC*%
G36*
X568839Y514839D02*
X568839Y514839D01*
X568839Y522461D01*
X570509Y522461D01*
X576461Y516509D01*
X576461Y514839D01*
X568839Y514839D01*
G37*
%LPD*%
%LPC*%
G36*
X187839Y514839D02*
X187839Y514839D01*
X187839Y522461D01*
X189509Y522461D01*
X195461Y516509D01*
X195461Y514839D01*
X187839Y514839D01*
G37*
%LPD*%
%LPC*%
G36*
X238639Y540239D02*
X238639Y540239D01*
X238639Y547861D01*
X240309Y547861D01*
X246261Y541909D01*
X246261Y540239D01*
X238639Y540239D01*
G37*
%LPD*%
%LPC*%
G36*
X492639Y540239D02*
X492639Y540239D01*
X492639Y547861D01*
X494309Y547861D01*
X500261Y541909D01*
X500261Y540239D01*
X492639Y540239D01*
G37*
%LPD*%
%LPC*%
G36*
X137039Y540239D02*
X137039Y540239D01*
X137039Y547861D01*
X138709Y547861D01*
X144661Y541909D01*
X144661Y540239D01*
X137039Y540239D01*
G37*
%LPD*%
%LPC*%
G36*
X556139Y514839D02*
X556139Y514839D01*
X556139Y516509D01*
X562091Y522461D01*
X563761Y522461D01*
X563761Y514839D01*
X556139Y514839D01*
G37*
%LPD*%
%LPC*%
G36*
X391039Y502139D02*
X391039Y502139D01*
X391039Y509761D01*
X398661Y509761D01*
X398661Y508091D01*
X392709Y502139D01*
X391039Y502139D01*
G37*
%LPD*%
%LPC*%
G36*
X429139Y540239D02*
X429139Y540239D01*
X429139Y541909D01*
X435091Y547861D01*
X436761Y547861D01*
X436761Y540239D01*
X429139Y540239D01*
G37*
%LPD*%
%LPC*%
G36*
X441839Y527539D02*
X441839Y527539D01*
X441839Y535161D01*
X449461Y535161D01*
X449461Y533491D01*
X443509Y527539D01*
X441839Y527539D01*
G37*
%LPD*%
%LPC*%
G36*
X238639Y527539D02*
X238639Y527539D01*
X238639Y535161D01*
X246261Y535161D01*
X246261Y533491D01*
X240309Y527539D01*
X238639Y527539D01*
G37*
%LPD*%
%LPC*%
G36*
X492639Y527539D02*
X492639Y527539D01*
X492639Y535161D01*
X500261Y535161D01*
X500261Y533491D01*
X494309Y527539D01*
X492639Y527539D01*
G37*
%LPD*%
%LPC*%
G36*
X124339Y540239D02*
X124339Y540239D01*
X124339Y541909D01*
X130291Y547861D01*
X131961Y547861D01*
X131961Y540239D01*
X124339Y540239D01*
G37*
%LPD*%
%LPC*%
G36*
X378339Y514839D02*
X378339Y514839D01*
X378339Y516509D01*
X384291Y522461D01*
X385961Y522461D01*
X385961Y514839D01*
X378339Y514839D01*
G37*
%LPD*%
%LPC*%
G36*
X137039Y527539D02*
X137039Y527539D01*
X137039Y535161D01*
X144661Y535161D01*
X144661Y533491D01*
X138709Y527539D01*
X137039Y527539D01*
G37*
%LPD*%
%LPC*%
G36*
X175139Y514839D02*
X175139Y514839D01*
X175139Y516509D01*
X181091Y522461D01*
X182761Y522461D01*
X182761Y514839D01*
X175139Y514839D01*
G37*
%LPD*%
%LPC*%
G36*
X479939Y540239D02*
X479939Y540239D01*
X479939Y541909D01*
X485891Y547861D01*
X487561Y547861D01*
X487561Y540239D01*
X479939Y540239D01*
G37*
%LPD*%
%LPC*%
G36*
X225939Y540239D02*
X225939Y540239D01*
X225939Y541909D01*
X231891Y547861D01*
X233561Y547861D01*
X233561Y540239D01*
X225939Y540239D01*
G37*
%LPD*%
%LPC*%
G36*
X302139Y540239D02*
X302139Y540239D01*
X302139Y541909D01*
X308091Y547861D01*
X309761Y547861D01*
X309761Y540239D01*
X302139Y540239D01*
G37*
%LPD*%
%LPC*%
G36*
X568839Y502139D02*
X568839Y502139D01*
X568839Y509761D01*
X576461Y509761D01*
X576461Y508091D01*
X570509Y502139D01*
X568839Y502139D01*
G37*
%LPD*%
%LPC*%
G36*
X187839Y502139D02*
X187839Y502139D01*
X187839Y509761D01*
X195461Y509761D01*
X195461Y508091D01*
X189509Y502139D01*
X187839Y502139D01*
G37*
%LPD*%
%LPC*%
G36*
X314839Y527539D02*
X314839Y527539D01*
X314839Y535161D01*
X322461Y535161D01*
X322461Y533491D01*
X316509Y527539D01*
X314839Y527539D01*
G37*
%LPD*%
%LPC*%
G36*
X231891Y527539D02*
X231891Y527539D01*
X225939Y533491D01*
X225939Y535161D01*
X233561Y535161D01*
X233561Y527539D01*
X231891Y527539D01*
G37*
%LPD*%
%LPC*%
G36*
X130291Y527539D02*
X130291Y527539D01*
X124339Y533491D01*
X124339Y535161D01*
X131961Y535161D01*
X131961Y527539D01*
X130291Y527539D01*
G37*
%LPD*%
%LPC*%
G36*
X384291Y502139D02*
X384291Y502139D01*
X378339Y508091D01*
X378339Y509761D01*
X385961Y509761D01*
X385961Y502139D01*
X384291Y502139D01*
G37*
%LPD*%
%LPC*%
G36*
X181091Y502139D02*
X181091Y502139D01*
X175139Y508091D01*
X175139Y509761D01*
X182761Y509761D01*
X182761Y502139D01*
X181091Y502139D01*
G37*
%LPD*%
%LPC*%
G36*
X435091Y527539D02*
X435091Y527539D01*
X429139Y533491D01*
X429139Y535161D01*
X436761Y535161D01*
X436761Y527539D01*
X435091Y527539D01*
G37*
%LPD*%
%LPC*%
G36*
X308091Y527539D02*
X308091Y527539D01*
X302139Y533491D01*
X302139Y535161D01*
X309761Y535161D01*
X309761Y527539D01*
X308091Y527539D01*
G37*
%LPD*%
%LPC*%
G36*
X485891Y527539D02*
X485891Y527539D01*
X479939Y533491D01*
X479939Y535161D01*
X487561Y535161D01*
X487561Y527539D01*
X485891Y527539D01*
G37*
%LPD*%
%LPC*%
G36*
X562091Y502139D02*
X562091Y502139D01*
X556139Y508091D01*
X556139Y509761D01*
X563761Y509761D01*
X563761Y502139D01*
X562091Y502139D01*
G37*
%LPD*%
%LPC*%
G36*
X185299Y512299D02*
X185299Y512299D01*
X185299Y512301D01*
X185301Y512301D01*
X185301Y512299D01*
X185299Y512299D01*
G37*
%LPD*%
%LPC*%
G36*
X388499Y512299D02*
X388499Y512299D01*
X388499Y512301D01*
X388501Y512301D01*
X388501Y512299D01*
X388499Y512299D01*
G37*
%LPD*%
%LPC*%
G36*
X312299Y537699D02*
X312299Y537699D01*
X312299Y537701D01*
X312301Y537701D01*
X312301Y537699D01*
X312299Y537699D01*
G37*
%LPD*%
%LPC*%
G36*
X236099Y537699D02*
X236099Y537699D01*
X236099Y537701D01*
X236101Y537701D01*
X236101Y537699D01*
X236099Y537699D01*
G37*
%LPD*%
%LPC*%
G36*
X79049Y424959D02*
X79049Y424959D01*
X79049Y424961D01*
X79051Y424961D01*
X79051Y424959D01*
X79049Y424959D01*
G37*
%LPD*%
%LPC*%
G36*
X134499Y537699D02*
X134499Y537699D01*
X134499Y537701D01*
X134501Y537701D01*
X134501Y537699D01*
X134499Y537699D01*
G37*
%LPD*%
%LPC*%
G36*
X490099Y537699D02*
X490099Y537699D01*
X490099Y537701D01*
X490101Y537701D01*
X490101Y537699D01*
X490099Y537699D01*
G37*
%LPD*%
%LPC*%
G36*
X439299Y537699D02*
X439299Y537699D01*
X439299Y537701D01*
X439301Y537701D01*
X439301Y537699D01*
X439299Y537699D01*
G37*
%LPD*%
%LPC*%
G36*
X566299Y512299D02*
X566299Y512299D01*
X566299Y512301D01*
X566301Y512301D01*
X566301Y512299D01*
X566299Y512299D01*
G37*
%LPD*%
D10*
X600000Y30000D02*
X631166Y-63499D01*
X661166Y-53499D02*
X630000Y40000D01*
X624383Y-45206D02*
X575668Y-61444D01*
X655617Y-34794D02*
X726747Y-11084D01*
X624383Y-45206D02*
X599325Y-50193D01*
X601344Y-56251D01*
X624383Y-45206D01*
X599923Y-51989D01*
X600745Y-54455D02*
X624383Y-45206D01*
X599512Y-50755D01*
X601156Y-55689D02*
X624383Y-45206D01*
X655617Y-34794D02*
X678656Y-23750D01*
X680675Y-29807D01*
X655617Y-34794D01*
X679255Y-25545D01*
X680077Y-28011D02*
X655617Y-34794D01*
X678844Y-24312D01*
X680488Y-29245D02*
X655617Y-34794D01*
D11*
X716232Y9415D02*
X719664Y7704D01*
X716232Y9415D02*
X711089Y7695D01*
X709378Y4263D01*
X710238Y1691D01*
X713670Y-20D01*
X716241Y840D01*
X713670Y-20D02*
X711959Y-3452D01*
X712819Y-6024D01*
X716251Y-7735D01*
X721394Y-6014D01*
X723105Y-2582D01*
X707580Y-7777D02*
X708440Y-10348D01*
X707580Y-7777D02*
X705008Y-8637D01*
X705869Y-11209D01*
X708440Y-10348D01*
X697236Y-2659D02*
X690372Y763D01*
X695534Y-14666D01*
X700677Y-12945D02*
X690391Y-16387D01*
X675707Y-7003D02*
X669703Y-6153D01*
X675707Y-7003D02*
X682571Y-10426D01*
X684292Y-15569D01*
X682580Y-19001D01*
X677437Y-20721D01*
X674005Y-19010D01*
X673145Y-16439D01*
X674856Y-13007D01*
X682571Y-10426D01*
D10*
X630000Y40000D02*
X630000Y89500D01*
X650000Y89500D02*
X650000Y40000D01*
X629350Y70000D02*
X578000Y70000D01*
X650650Y70000D02*
X725628Y70000D01*
X629350Y70000D02*
X604000Y73192D01*
X604000Y66808D01*
X629350Y70000D01*
X604000Y71300D01*
X604000Y68700D02*
X629350Y70000D01*
X604000Y72600D01*
X604000Y67400D02*
X629350Y70000D01*
X650650Y70000D02*
X676000Y73192D01*
X676000Y66808D01*
X650650Y70000D01*
X676000Y71300D01*
X676000Y68700D02*
X650650Y70000D01*
X676000Y72600D01*
X676000Y67400D02*
X650650Y70000D01*
D11*
X714019Y76507D02*
X724866Y76507D01*
X714019Y87354D01*
X714019Y90065D01*
X716731Y92777D01*
X722154Y92777D01*
X724866Y90065D01*
X708494Y79219D02*
X708494Y76507D01*
X708494Y79219D02*
X705783Y79219D01*
X705783Y76507D01*
X708494Y76507D01*
X700308Y79219D02*
X700308Y90065D01*
X697597Y92777D01*
X692174Y92777D01*
X689462Y90065D01*
X689462Y79219D01*
X692174Y76507D01*
X697597Y76507D01*
X700308Y79219D01*
X689462Y90065D01*
X683937Y90065D02*
X683937Y79219D01*
X683937Y90065D02*
X681225Y92777D01*
X675802Y92777D01*
X673090Y90065D01*
X673090Y79219D01*
X675802Y76507D01*
X681225Y76507D01*
X683937Y79219D01*
X673090Y90065D01*
D12*
X353150Y449090D03*
X388150Y449090D03*
D13*
X615000Y525000D03*
X35000Y525000D03*
X35000Y35000D03*
X615000Y35000D03*
D14*
X160330Y445280D03*
D15*
X195890Y445280D03*
D16*
X79050Y297960D03*
X79050Y323360D03*
X79050Y348760D03*
X79050Y374160D03*
X79050Y399560D03*
X79050Y424960D03*
D17*
X333050Y297960D03*
X333050Y272560D03*
X307650Y297960D03*
X307650Y272560D03*
X282250Y297960D03*
X282250Y272560D03*
X256850Y297960D03*
X256850Y272560D03*
X333050Y247160D03*
X307650Y247160D03*
X282250Y247160D03*
X256850Y247160D03*
X206050Y297960D03*
X206050Y272560D03*
X180650Y297960D03*
X180650Y272560D03*
X155250Y297960D03*
X155250Y272560D03*
X129850Y297960D03*
X129850Y272560D03*
X206050Y247160D03*
X180650Y247160D03*
X155250Y247160D03*
X129850Y247160D03*
X612450Y297960D03*
X612450Y272560D03*
X587050Y297960D03*
X587050Y272560D03*
X561650Y297960D03*
X561650Y272560D03*
X536250Y297960D03*
X536250Y272560D03*
X612450Y247160D03*
X587050Y247160D03*
X561650Y247160D03*
X536250Y247160D03*
X485450Y297960D03*
X485450Y272560D03*
X460050Y297960D03*
X460050Y272560D03*
X434650Y297960D03*
X434650Y272560D03*
X409250Y297960D03*
X409250Y272560D03*
X485450Y247160D03*
X460050Y247160D03*
X434650Y247160D03*
X409250Y247160D03*
D18*
X468940Y464330D03*
X494340Y464330D03*
X519740Y464330D03*
X545140Y464330D03*
X570540Y464330D03*
X595940Y464330D03*
D19*
X83700Y512300D03*
D20*
X109100Y512300D03*
X134500Y512300D03*
X159900Y512300D03*
X185300Y512300D03*
X210700Y512300D03*
X83700Y537700D03*
X109100Y537700D03*
X134500Y537700D03*
X159900Y537700D03*
X185300Y537700D03*
X210700Y537700D03*
X236100Y512300D03*
X236100Y537700D03*
X261500Y512300D03*
X286900Y512300D03*
X312300Y512300D03*
X337700Y512300D03*
X363100Y512300D03*
X388500Y512300D03*
X261500Y537700D03*
X286900Y537700D03*
X312300Y537700D03*
X337700Y537700D03*
X363100Y537700D03*
X388500Y537700D03*
X413900Y512300D03*
X413900Y537700D03*
X439300Y512300D03*
X464700Y512300D03*
X490100Y512300D03*
X515500Y512300D03*
X540900Y512300D03*
X566300Y512300D03*
X439300Y537700D03*
X464700Y537700D03*
X490100Y537700D03*
X515500Y537700D03*
X540900Y537700D03*
X566300Y537700D03*
D21*
X195890Y445280D02*
X195890Y350030D01*
X231450Y314470D01*
X231450Y272560D01*
D22*
X231450Y272560D03*
X231450Y285260D03*
X231450Y259860D03*
D23*
X415600Y389400D02*
X418140Y389400D01*
D24*
X128580Y464330D03*
X358450Y324630D03*
X415600Y389400D03*
X543870Y428770D03*
X132390Y365270D03*
D25*
X132390Y361460D01*
D23*
X583240Y418610D02*
X583240Y440200D01*
X583240Y418610D02*
X576890Y412260D01*
X373690Y412260D01*
X369880Y408450D01*
X369880Y399560D01*
D24*
X583240Y440200D03*
X369880Y399560D03*
D23*
X595940Y452900D02*
X595940Y464330D01*
X595940Y452900D02*
X583240Y440200D01*
X557840Y440200D02*
X557840Y421150D01*
X554030Y417340D01*
X326700Y417340D01*
X326700Y407180D01*
D24*
X557840Y440200D03*
X326700Y407180D03*
D23*
X570540Y452900D02*
X570540Y464330D01*
X570540Y452900D02*
X557840Y440200D01*
X532440Y440200D02*
X532440Y426230D01*
X528630Y422420D01*
X315270Y422420D01*
X307650Y414800D02*
X307650Y405910D01*
X307650Y414800D02*
X315270Y422420D01*
D24*
X532440Y440200D03*
X307650Y405910D03*
D23*
X545140Y452900D02*
X545140Y464330D01*
X545140Y452900D02*
X532440Y440200D01*
X507040Y440200D02*
X507040Y432580D01*
X501960Y427500D01*
X311460Y427500D01*
X296220Y412260D01*
X296220Y388130D01*
X317810Y388130D01*
D24*
X507040Y440200D03*
X317810Y388130D03*
D23*
X519740Y452900D02*
X519740Y464330D01*
X519740Y452900D02*
X507040Y440200D01*
X481640Y440200D02*
X481640Y435120D01*
X479100Y432580D01*
X296220Y432580D01*
X280980Y417340D02*
X280980Y400830D01*
X280980Y417340D02*
X296220Y432580D01*
D24*
X481640Y440200D03*
X280980Y400830D03*
D23*
X494340Y445280D02*
X494340Y464330D01*
X494340Y445280D02*
X489260Y440200D01*
X481640Y440200D01*
X468940Y444010D02*
X468940Y464330D01*
D24*
X468940Y444010D03*
D23*
X409660Y399560D02*
X382580Y372480D01*
X384260Y372480D01*
X383850Y372890D01*
X236530Y372890D01*
X232720Y376700D01*
X232720Y416070D01*
D24*
X232720Y416070D03*
X383850Y372890D03*
D23*
X402900Y374160D02*
X603560Y374160D01*
X402900Y374160D02*
X387660Y358920D01*
X374960Y358920D01*
X373690Y360190D01*
X223830Y370350D02*
X223830Y405910D01*
X223830Y370350D02*
X233990Y360190D01*
X373690Y360190D01*
D24*
X373690Y360190D03*
X223830Y405910D03*
X604830Y384320D03*
D23*
X604830Y375430D01*
X603560Y374160D01*
D24*
X141000Y472000D03*
X134000Y404000D03*
D26*
X141000Y411000D02*
X141000Y472000D01*
X141000Y411000D02*
X134000Y404000D01*
D23*
X364800Y348760D02*
X617530Y348760D01*
X160330Y348760D02*
X79050Y348760D01*
X160330Y348760D02*
X180650Y369080D01*
X180650Y450360D01*
X187645Y457355D02*
X195890Y465600D01*
X187645Y457355D02*
X180650Y450360D01*
X195890Y465600D02*
X241610Y465600D01*
X244150Y463060D01*
X244150Y388130D01*
X254310Y377970D01*
X352100Y377970D01*
X362260Y388130D01*
D24*
X364800Y348760D03*
X362260Y388130D03*
X617530Y358920D03*
D23*
X617530Y348760D01*
D24*
X152000Y483000D03*
D26*
X162000Y483000D01*
X187645Y457355D01*
M02*
