G04 EAGLE Gerber RS-274X export*
G75*
%MOMM*%
%FSLAX34Y34*%
%LPD*%
%IN*%
%IPPOS*%
%AMOC8*
5,1,8,0,0,1.08239X$1,22.5*%
G01*
%ADD10C,0.254000*%


D10*
X0Y30000D02*
X114Y27385D01*
X456Y24791D01*
X1022Y22235D01*
X1809Y19739D01*
X2811Y17321D01*
X4019Y15000D01*
X5425Y12793D01*
X7019Y10716D01*
X8787Y8787D01*
X10716Y7019D01*
X12793Y5425D01*
X15000Y4019D01*
X17321Y2811D01*
X19739Y1809D01*
X22235Y1022D01*
X24791Y456D01*
X27385Y114D01*
X30000Y0D01*
X620000Y0D01*
X622615Y114D01*
X625209Y456D01*
X627765Y1022D01*
X630261Y1809D01*
X632679Y2811D01*
X635000Y4019D01*
X637207Y5425D01*
X639284Y7019D01*
X641213Y8787D01*
X642981Y10716D01*
X644575Y12793D01*
X645981Y15000D01*
X647189Y17321D01*
X648191Y19739D01*
X648978Y22235D01*
X649544Y24791D01*
X649886Y27385D01*
X650000Y30000D01*
X650000Y530000D01*
X649886Y532615D01*
X649544Y535209D01*
X648978Y537765D01*
X648191Y540261D01*
X647189Y542679D01*
X645981Y545000D01*
X644575Y547207D01*
X642981Y549284D01*
X641213Y551213D01*
X639284Y552981D01*
X637207Y554575D01*
X635000Y555981D01*
X632679Y557189D01*
X630261Y558191D01*
X627765Y558978D01*
X625209Y559544D01*
X622615Y559886D01*
X620000Y560000D01*
X30000Y560000D01*
X27385Y559886D01*
X24791Y559544D01*
X22235Y558978D01*
X19739Y558191D01*
X17321Y557189D01*
X15000Y555981D01*
X12793Y554575D01*
X10716Y552981D01*
X8787Y551213D01*
X7019Y549284D01*
X5425Y547207D01*
X4019Y545000D01*
X2811Y542679D01*
X1809Y540261D01*
X1022Y537765D01*
X456Y535209D01*
X114Y532615D01*
X0Y530000D01*
X0Y375000D01*
X38Y374128D01*
X152Y373264D01*
X341Y372412D01*
X603Y371580D01*
X937Y370774D01*
X1340Y370000D01*
X1808Y369264D01*
X2340Y368572D01*
X2929Y367929D01*
X3572Y367340D01*
X4264Y366808D01*
X5000Y366340D01*
X5774Y365937D01*
X6580Y365603D01*
X7412Y365341D01*
X8264Y365152D01*
X9128Y365038D01*
X10000Y365000D01*
X40000Y365000D01*
X40872Y364962D01*
X41736Y364848D01*
X42588Y364659D01*
X43420Y364397D01*
X44226Y364063D01*
X45000Y363660D01*
X45736Y363192D01*
X46428Y362660D01*
X47071Y362071D01*
X47660Y361428D01*
X48192Y360736D01*
X48660Y360000D01*
X49063Y359226D01*
X49397Y358420D01*
X49659Y357588D01*
X49848Y356736D01*
X49962Y355872D01*
X50000Y355000D01*
X50000Y205000D01*
X49962Y204128D01*
X49848Y203264D01*
X49659Y202412D01*
X49397Y201580D01*
X49063Y200774D01*
X48660Y200000D01*
X48192Y199264D01*
X47660Y198572D01*
X47071Y197929D01*
X46428Y197340D01*
X45736Y196808D01*
X45000Y196340D01*
X44226Y195937D01*
X43420Y195603D01*
X42588Y195341D01*
X41736Y195152D01*
X40872Y195038D01*
X40000Y195000D01*
X10000Y195000D01*
X9128Y194962D01*
X8264Y194848D01*
X7412Y194659D01*
X6580Y194397D01*
X5774Y194063D01*
X5000Y193660D01*
X4264Y193192D01*
X3572Y192660D01*
X2929Y192071D01*
X2340Y191428D01*
X1808Y190736D01*
X1340Y190000D01*
X937Y189226D01*
X603Y188420D01*
X341Y187588D01*
X152Y186736D01*
X38Y185872D01*
X0Y185000D01*
X0Y30000D01*
X440000Y40000D02*
X440038Y39128D01*
X440152Y38264D01*
X440341Y37412D01*
X440603Y36580D01*
X440937Y35774D01*
X441340Y35000D01*
X441808Y34264D01*
X442340Y33572D01*
X442929Y32929D01*
X443572Y32340D01*
X444264Y31808D01*
X445000Y31340D01*
X445774Y30937D01*
X446580Y30603D01*
X447412Y30341D01*
X448264Y30152D01*
X449128Y30038D01*
X450000Y30000D01*
X450872Y30038D01*
X451736Y30152D01*
X452588Y30341D01*
X453420Y30603D01*
X454226Y30937D01*
X455000Y31340D01*
X455736Y31808D01*
X456428Y32340D01*
X457071Y32929D01*
X457660Y33572D01*
X458192Y34264D01*
X458660Y35000D01*
X459063Y35774D01*
X459397Y36580D01*
X459659Y37412D01*
X459848Y38264D01*
X459962Y39128D01*
X460000Y40000D01*
X460000Y190000D01*
X459962Y190872D01*
X459848Y191736D01*
X459659Y192588D01*
X459397Y193420D01*
X459063Y194226D01*
X458660Y195000D01*
X458192Y195736D01*
X457660Y196428D01*
X457071Y197071D01*
X456428Y197660D01*
X455736Y198192D01*
X455000Y198660D01*
X454226Y199063D01*
X453420Y199397D01*
X452588Y199659D01*
X451736Y199848D01*
X450872Y199962D01*
X450000Y200000D01*
X449128Y199962D01*
X448264Y199848D01*
X447412Y199659D01*
X446580Y199397D01*
X445774Y199063D01*
X445000Y198660D01*
X444264Y198192D01*
X443572Y197660D01*
X442929Y197071D01*
X442340Y196428D01*
X441808Y195736D01*
X441340Y195000D01*
X440937Y194226D01*
X440603Y193420D01*
X440341Y192588D01*
X440152Y191736D01*
X440038Y190872D01*
X440000Y190000D01*
X440000Y40000D01*
M02*
