G04 EAGLE Gerber RS-274X export*
G75*
%MOMM*%
%FSLAX34Y34*%
%LPD*%
%INSolderpaste Top*%
%IPPOS*%
%AMOC8*
5,1,8,0,0,1.08239X$1,22.5*%
G01*
%ADD10R,0.990600X0.304800*%
%ADD11R,1.500000X1.300000*%
%ADD12R,6.200000X5.400000*%
%ADD13R,1.600000X1.000000*%
%ADD14R,1.200000X1.200000*%
%ADD15R,1.300000X1.200000*%
%ADD16R,0.450000X0.900000*%


D10*
X341972Y404980D03*
X341972Y398480D03*
X341972Y391980D03*
X341972Y385480D03*
X341972Y378980D03*
X341972Y372480D03*
X341972Y365980D03*
X341972Y359480D03*
X400328Y359480D03*
X400328Y365980D03*
X400328Y372480D03*
X400328Y378980D03*
X400328Y385480D03*
X400328Y391980D03*
X400328Y398480D03*
X400328Y404980D03*
X341972Y352980D03*
X341972Y346480D03*
X400328Y352980D03*
X400328Y346480D03*
X341972Y339980D03*
X341972Y333480D03*
X341972Y326980D03*
X341972Y320480D03*
X400328Y320480D03*
X400328Y326980D03*
X400328Y333480D03*
X400328Y339980D03*
D11*
X146835Y386835D03*
X146835Y367835D03*
X128580Y431335D03*
X128580Y450335D03*
D12*
X289600Y449740D03*
D13*
X216600Y472540D03*
X216600Y426940D03*
D14*
X433380Y452560D03*
X433380Y473560D03*
D15*
X433380Y431310D03*
X433380Y410990D03*
D16*
X250800Y332640D03*
X250800Y349640D03*
X241800Y332640D03*
X233800Y332640D03*
X224800Y332640D03*
X224800Y349640D03*
X241800Y349640D03*
X233800Y349640D03*
X603860Y331370D03*
X603860Y348370D03*
X594860Y331370D03*
X586860Y331370D03*
X577860Y331370D03*
X577860Y348370D03*
X594860Y348370D03*
X586860Y348370D03*
X187300Y332640D03*
X187300Y349640D03*
X178300Y332640D03*
X170300Y332640D03*
X161300Y332640D03*
X161300Y349640D03*
X178300Y349640D03*
X170300Y349640D03*
X527660Y331370D03*
X527660Y348370D03*
X518660Y331370D03*
X510660Y331370D03*
X501660Y331370D03*
X501660Y348370D03*
X518660Y348370D03*
X510660Y348370D03*
X487690Y423300D03*
X487690Y406300D03*
X496690Y423300D03*
X504690Y423300D03*
X513690Y423300D03*
X513690Y406300D03*
X496690Y406300D03*
X504690Y406300D03*
X557540Y423300D03*
X557540Y406300D03*
X566540Y423300D03*
X574540Y423300D03*
X583540Y423300D03*
X583540Y406300D03*
X566540Y406300D03*
X574540Y406300D03*
M02*
