M48
;GenerationSoftware,Autodesk,EAGLE,9.6.2*%
;CreationDate,2020-11-13T15:01:15Z*%
FMAT,2
ICI,OFF
METRIC,TZ,000.000
T6C0.394
T5C0.500
T4C0.813
T3C1.000
T2C1.016
T1C2.500
%
G90
M71
T1
X61500Y52500
X3500Y52500
X3500Y3500
X61500Y3500
T2
X43930Y51230
X41390Y53770
X41390Y51230
X38850Y53770
X36310Y53770
X31230Y53770
X28690Y53770
X26150Y53770
X38850Y51230
X36310Y51230
X33770Y51230
X31230Y51230
X33770Y53770
X28690Y51230
X26150Y51230
X23610Y53770
X23610Y51230
X21070Y53770
X18530Y53770
X15990Y53770
X13450Y53770
X10910Y53770
X8370Y53770
X21070Y51230
X18530Y51230
X15990Y51230
X7905Y39956
X7905Y42496
X13450Y51230
X51550Y51230
X49010Y51230
X46470Y51230
X10910Y51230
X8370Y51230
X7905Y29796
X7905Y32336
X7905Y34876
X7905Y37416
X54090Y51230
X56630Y51230
X43930Y53770
X46470Y53770
X49010Y53770
X51550Y53770
X54090Y53770
X56630Y53770
T3
X25685Y29796
X25685Y27256
X33305Y24716
X30765Y24716
X28225Y24716
X25685Y24716
X20605Y29796
X20605Y27256
X18065Y29796
X18065Y27256
X15525Y29796
X15525Y27256
X12985Y29796
X12985Y27256
X20605Y24716
X18065Y24716
X15525Y24716
X12985Y24716
X61245Y29796
X61245Y27256
X58705Y29796
X58705Y27256
X56165Y29796
X56165Y27256
X53625Y29796
X53625Y27256
X61245Y24716
X58705Y24716
X56165Y24716
X53625Y24716
X48545Y29796
X48545Y27256
X46005Y29796
X46005Y27256
X43465Y29796
X43465Y27256
X40925Y29796
X40925Y27256
X48545Y24716
X46005Y24716
X43465Y24716
X40925Y24716
X35315Y44909
X38815Y44909
X33305Y29796
X33305Y27256
X30765Y29796
X30765Y27256
X28225Y29796
X28225Y27256
T4
X19589Y44528
X16033Y44528
T5
X23145Y27256
X23145Y25986
X23145Y28526
T6
X14100Y47200
X60483Y38432
X22383Y40591
X37369Y36019
X38385Y37289
X23272Y41607
X46894Y44401
X28098Y40083
X31781Y38813
X50704Y44020
X30765Y40591
X53244Y44020
X32670Y40718
X55784Y44020
X36988Y39956
X58324Y44020
X13239Y36527
X54387Y42877
X41560Y38940
X35845Y32463
X12858Y46433
X48164Y44020
X15200Y48300
X61753Y35892
X36226Y38813
X36480Y34876
X13400Y40400
M30